<svg xmlns="http://www.w3.org/2000/svg" xmlns:xlink="http://www.w3.org/1999/xlink" width="284" height="200" viewBox="0 0 213 150"><defs><filter id="a" filterUnits="objectBoundingBox" x="0%" y="0%" width="100%" height="100%"><feColorMatrix in="SourceGraphic" values="0 0 0 0 1 0 0 0 0 1 0 0 0 0 1 0 0 0 1 0"/></filter><mask id="d"><path fill-opacity=".1" d="M0 0h213v150H0z" filter="url(#a)"/></mask><clipPath id="b"><path d="M0 0h213v150H0z"/></clipPath><g id="c" clip-path="url(#b)"><path d="M84.7 42.9L135 76.5l7-3.7zm0 0" fill="#420000"/></g><linearGradient id="e" gradientUnits="userSpaceOnUse" x1="512.5" y1="719.7" x2="512.5" y2="1.2" gradientTransform="matrix(.208 0 0 -.20804 0 150)"><stop offset="0" stop-color="#e52d27"/><stop offset="1" stop-color="#bf171d"/></linearGradient></defs><path d="M84.7 102.6L142 72.8l-57.4-30zm0 0" fill="#fff"/><use xlink:href="#c" mask="url(#d)"/><path d="M210.7 32.5s-2-14.6-8.4-21C194.2 3 185 2.8 181 2.4 151.2.2 106.6.2 106.6.2S62 .3 32.2 2.4C28.1 3 19 3 11 11.4 4.6 18 2.5 32.5 2.5 32.5S.4 49.7.4 67V83c0 17.2 2.1 34.4 2.1 34.4s2 14.7 8.4 21.1c8.1 8.5 18.7 8.2 23.5 9.1 17 1.6 72.2 2.2 72.2 2.2s44.6-.1 74.4-2.3c4.1-.5 13.2-.5 21.3-9 6.3-6.4 8.4-21 8.4-21s2.1-17.3 2.1-34.5V67c0-17.3-2-34.5-2-34.5zm-126 70V43l57.4 30zm0 0" fill="url(#e)"/></svg>