<svg width="264" height="164" xmlns="http://www.w3.org/2000/svg"><defs><linearGradient x1="-112.1%" y1="50%" y2="200%" id="a"><stop stop-color="#00DEFF" offset="0%"/><stop stop-color="#066EE7" offset="39.8%"/><stop stop-color="#F60CB9" offset="100%"/></linearGradient></defs><g fill="none" fill-rule="evenodd"><g transform="translate(16)"><ellipse fill="url(#a)" cx="61.5" cy="13" rx="12.5" ry="13"/><path d="M43 60h39V37.1c0-6-1.6-9.3-7.8-12.1-3.2 3-7 4.6-11.7 4.6-4.6 0-8.5-1.5-11.5-4.6-5.3 1.9-8 5.6-8 11.2V60z" fill="url(#a)"/><ellipse fill="url(#a)" cx="19.5" cy="13" rx="12.5" ry="13"/><path d="M0 60h39V37.1c0-6-1.6-9.3-7.8-12.1-3.2 3-7 4.6-11.7 4.6-4.6 0-8.5-1.5-11.5-4.6-5.3 1.9-8 5.6-8 11.2V60z" fill="url(#a)"/><g transform="translate(85)" fill="#D8D8D8"><ellipse cx="19.1" cy="13" rx="12.4" ry="13"/><path d="M0 61h39V37.6c0-6.2-1.6-9.6-7.8-12.4a16 16 0 0 1-11.7 4.7c-4.6 0-8.5-1.6-11.5-4.7-5.3 1.9-8 5.7-8 11.4V61z"/></g><g transform="translate(128)" fill="#D8D8D8"><ellipse cx="19.1" cy="13" rx="12.4" ry="13"/><path d="M0 61h39V37.6c0-6.2-1.6-9.6-7.8-12.4a16 16 0 0 1-11.7 4.7c-4.6 0-8.5-1.6-11.5-4.7-5.3 1.9-8 5.7-8 11.4V61z"/></g><g transform="translate(172)" fill="#D8D8D8"><ellipse cx="19.1" cy="13" rx="12.4" ry="13"/><path d="M0 61h39V37.6c0-6.2-1.6-9.6-7.8-12.4a16 16 0 0 1-11.7 4.7c-4.6 0-8.5-1.6-11.5-4.7-5.3 1.9-8 5.7-8 11.4V61z"/></g><ellipse stroke="#FFF" stroke-width="5" fill="url(#a)" cx="85.5" cy="50" rx="13.5" ry="14"/><path d="M66 97h39V74.1c0-6-1.6-9.3-7.8-12.1-3.2 3-7 4.6-11.7 4.6-4.6 0-8.5-1.5-11.5-4.6-5.3 1.9-8 5.6-8 11.2V97z" fill="url(#a)"/><ellipse stroke="#FFF" stroke-width="5" fill="url(#a)" cx="42.5" cy="50" rx="13.5" ry="14"/><path d="M24 97h39V74.1c0-6-1.6-9.3-7.8-12.1-3.2 3-7 4.6-11.7 4.6-4.6 0-8.5-1.5-11.5-4.6-5.3 1.9-8 5.6-8 11.2V97z" fill="url(#a)"/><ellipse stroke="#FFF" stroke-width="5" fill="url(#a)" cx="127.5" cy="50" rx="13.5" ry="14"/><path d="M110 97h39V74.1c0-6-1.6-9.3-7.8-12.1-3.2 3-7 4.6-11.7 4.6-4.6 0-8.5-1.5-11.5-4.6-5.3 1.9-8 5.6-8 11.2V97z" fill="url(#a)"/><ellipse stroke="#FFF" stroke-width="5" fill="url(#a)" cx="171.5" cy="50" rx="13.5" ry="14"/><path d="M151 97h39V74.1c0-6-1.6-9.3-7.8-12.1-3.2 3-7 4.6-11.7 4.6-4.6 0-8.5-1.5-11.5-4.6-5.3 1.9-8 5.6-8 11.2V97z" fill="url(#a)"/><ellipse stroke="#FFF" stroke-width="5" fill="url(#a)" cx="213.5" cy="50" rx="13.5" ry="14"/><path d="M195 97h39V74.1c0-6-1.6-9.3-7.8-12.1-3.2 3-7 4.6-11.7 4.6-4.6 0-8.5-1.5-11.5-4.6-5.3 1.9-8 5.6-8 11.2V97z" fill="url(#a)"/></g><text font-family="Signika-SemiBold, Signika" font-size="20" font-weight="500" fill="#4454DB" transform="translate(-27)"><tspan x="31" y="134">7 employeurs sur 10 recrutent </tspan> <tspan x="27.2" y="159">sans déposer d’offres d’emploi.</tspan></text></g></svg>