<svg width="255" height="117" xmlns="http://www.w3.org/2000/svg"><defs><filter x="-32%" y="-24%" width="164%" height="164%" filterUnits="objectBoundingBox" id="a"><feOffset dy="2" in="SourceAlpha" result="shadowOffsetOuter1"/><feGaussianBlur stdDeviation="2" in="shadowOffsetOuter1" result="shadowBlurOuter1"/><feColorMatrix values="0 0 0 0 0 0 0 0 0 0 0 0 0 0 0 0 0 0 0.5 0" in="shadowBlurOuter1" result="shadowMatrixOuter1"/><feMerge><feMergeNode in="shadowMatrixOuter1"/><feMergeNode in="SourceGraphic"/></feMerge></filter><filter x="-32%" y="-24%" width="164%" height="164%" filterUnits="objectBoundingBox" id="b"><feOffset dy="2" in="SourceAlpha" result="shadowOffsetOuter1"/><feGaussianBlur stdDeviation="2" in="shadowOffsetOuter1" result="shadowBlurOuter1"/><feColorMatrix values="0 0 0 0 0 0 0 0 0 0 0 0 0 0 0 0 0 0 0.5 0" in="shadowBlurOuter1" result="shadowMatrixOuter1"/><feMerge><feMergeNode in="shadowMatrixOuter1"/><feMergeNode in="SourceGraphic"/></feMerge></filter></defs><g fill="none" fill-rule="evenodd"><path d="M0 50L116 1l93 41-93 75L0 50z" fill="#00DEFF"/><g transform="translate(86 1)"><path d="M10 0A10 10 0 0 0 0 10.2C0 17.8 10 29 10 29s10-11.2 10-18.9A10 10 0 0 0 10 0zm0 13.8c-2 0-3.6-1.6-3.6-3.7 0-2 1.6-3.6 3.6-3.6s3.6 1.6 3.6 3.7c0 2-1.6 3.6-3.6 3.6z" fill="#066EE7"/><circle fill="#FFF" cx="10" cy="10" r="4"/></g><g transform="translate(66 37)"><path d="M10 0A10 10 0 0 0 0 10.2C0 17.8 10 29 10 29s10-11.2 10-18.9A10 10 0 0 0 10 0zm0 13.8c-2 0-3.6-1.6-3.6-3.7 0-2 1.6-3.6 3.6-3.6s3.6 1.6 3.6 3.7c0 2-1.6 3.6-3.6 3.6z" fill="#066EE7"/><circle fill="#FFF" cx="10" cy="10" r="4"/></g><g transform="translate(124 37)"><path d="M10 0A10 10 0 0 0 0 10.2C0 17.8 10 29 10 29s10-11.2 10-18.9A10 10 0 0 0 10 0zm0 13.8c-2 0-3.6-1.6-3.6-3.7 0-2 1.6-3.6 3.6-3.6s3.6 1.6 3.6 3.7c0 2-1.6 3.6-3.6 3.6z" fill="#066EE7"/><circle fill="#FFF" cx="10" cy="10" r="4"/></g><g stroke="#006AEB"><ellipse cx="11" cy="12.5" rx="11" ry="12.5" fill="#FFF" transform="rotate(125.7 69 87.7)"/><g stroke-width="3"><path stroke-linecap="round" d="M166.7 81.4l2 7-7.2.1"/><path d="M168.2 87.9L158 80.6"/></g></g><g stroke="#006AEB"><ellipse cx="10" cy="7.5" rx="10" ry="7.5" fill="#FFF" transform="rotate(48.6 73.3 180)"/><g stroke-width="3"><path stroke-linecap="round" d="M158.7 15.6l5.3.8v5.2"/><path d="M163.6 16.6l-5.6 5"/></g></g><g stroke="#006AEB"><ellipse cx="12" cy="12.5" rx="12" ry="12.5" fill="#FFF" transform="rotate(-134.4 49.7 40)"/><g stroke-width="3"><path stroke-linecap="round" d="M59.2 89.8l-7.5.5.8-7.4"/><path d="M52.3 89.8l8.9-8.7"/></g></g><g stroke="#006AEB"><ellipse cx="12" cy="12.5" rx="12" ry="12.5" fill="#FFF" transform="rotate(-47.9 32.8 -25.9)"/><g stroke-width="3"><path stroke-linecap="round" d="M44 18.4l-1-7.5 7.5.3"/><path d="M43.6 11.4l9.2 8.4"/></g></g><g filter="url(#a)" transform="translate(225 22)" stroke="#006AEB"><circle fill="#FFF" transform="matrix(0 -1 -1 0 25 25)" cx="12.5" cy="12.5" r="12.5"/><g stroke-linecap="round" stroke-width="3"><path d="M5.8 13.3h13M12.5 20V6.2"/></g></g><g filter="url(#b)" transform="translate(225 54)" stroke="#006AEB"><circle fill="#FFF" transform="matrix(0 -1 -1 0 25 25)" cx="12.5" cy="12.5" r="12.5"/><path d="M5.8 13.3h13" stroke-linecap="round" stroke-width="3"/></g></g></svg>