<svg width="290" height="372" xmlns="http://www.w3.org/2000/svg"><g transform="translate(0 1)" fill="none" fill-rule="evenodd"><ellipse fill="#9B9B9B" cx="145" cy="344" rx="145" ry="27"/><path d="M58 83c-27.7 30.7-41.8 47.8-42.5 51.5-1 5.5-3.5 7.5 1 11s58 48 59.5 52c1 2.7 4.8 24.5 11.5 65.5H190c7.7-37.7 11.5-58 11.5-61 0-4.5 22.5 17 22.5 20.5 0 2.3-3.3 18.5-10 48.5 4 8.3 6.7 11.5 8 9.5 2-3 26-42.5 26-48s-30.5-79-36-81.5-53.5-11-70-10.5-48 2-57 5-17 2.5-23.5 0-11.5-2.5-9.5-11S67 98 68 94c.7-2.7-2.7-6.3-10-11z" fill="#D8D8D8"/><path d="M88.4 263h102l-12 26.5V345l18.5 4v3h-25c-4.3-32.3-9.5-49-15.5-50-9-1.5-26.5-3-32.5 0-4 2-8.2 18.7-12.5 50H82v-3l19.5-4c4-21.7 5-36 3-43s-7.3-20-16-39z" fill="#000B07"/><path d="M78.3 0c16 8 28.7 11.7 38 11 5.5-.4 12.3-3.8 28-2.5 20.4 1.7 51 9.5 63.7 21.8a31 31 0 0 1 6.3 8.7c10 20.7 10 35.3 0 44 3.3 20.7-.3 36.3-11 47a82.4 82.4 0 0 0-21 31c-46.7 6-75.7.7-87-16-17-25-35-77-26-111l9-34z" stroke="#000" fill="#000"/><path fill="#E9AB80" d="M213.4 271l-6.5 2.5V298h6.5l10.5-18zM56 87.5l9.9 6.5 26.5-9-2-12H74.2l-3.8-7z"/></g></svg>