<svg width="209" height="45" xmlns="http://www.w3.org/2000/svg"><defs><linearGradient x1="1.572%" y1="100%" x2="97.17%" y2="3.017%" id="a"><stop stop-color="#00DEFF" offset="0%"/><stop stop-color="#066EE7" offset="39.798%"/><stop stop-color="#F60CB9" offset="100%"/></linearGradient></defs><g fill="none" fill-rule="evenodd"><path d="M42.53 18.038h5.614c0 .414-.028.809-.084 1.185-.17.959-.818 1.438-1.947 1.438H38.75c-.526 0-.95-.164-1.27-.493-.32-.33-.479-.785-.479-1.368V1.423l.197-.17h1.13c.62 0 1.057.151 1.311.452.254.301.38.79.38 1.467v14.979a25.959 25.959 0 0 1 2.512-.113zm18.48-2.087l-1.693.028h-3.865l-1.637-.028-1.495 4.71c-.32.076-.743.113-1.27.113a5.523 5.523 0 0 1-1.495-.197l-.084-.141 6.376-19.07c.395-.075.969-.112 1.72-.112.753 0 1.318.037 1.694.113l6.32 19.069c-.395.263-.903.395-1.524.395-.62 0-1.063-.113-1.326-.339-.263-.225-.489-.64-.677-1.24L61.01 15.95zm-6.433-2.426l1.44-.029h2.82a88 88 0 0 0 1.411.029l-1.298-4.09c-.658-2.107-1.156-3.809-1.495-5.106h-.141c-.226 1.034-.592 2.397-1.1 4.09l-1.637 5.106zm26.747 7.221l-6.235-.056-.17-.226V1.536l.17-.197 5.868-.085c2.05 0 3.588.442 4.613 1.326 1.025.884 1.538 2.144 1.538 3.78 0 .902-.245 1.706-.734 2.412a4.212 4.212 0 0 1-1.918 1.537c.47.15.926.385 1.368.705.442.32.823.696 1.143 1.128.32.433.578.913.776 1.44a4.7 4.7 0 0 1 .296 1.663c0 1.655-.555 2.986-1.665 3.992-1.11 1.006-2.793 1.51-5.05 1.51zm-3.442-2.257l3.414-.028c.696 0 1.279-.094 1.75-.282.47-.188.845-.437 1.128-.747.282-.31.484-.668.606-1.072.122-.405.184-.842.184-1.312 0-.414-.07-.823-.212-1.227a2.933 2.933 0 0 0-.677-1.086c-.31-.32-.71-.578-1.2-.776-.488-.197-1.071-.296-1.748-.296h-3.245v6.826zm0-14.978V9.35h2.962c.602 0 1.11-.075 1.524-.226.414-.15.748-.357 1.002-.62.253-.264.437-.574.55-.931.113-.358.169-.734.169-1.129 0-1.937-1.063-2.905-3.188-2.905h-1.82c-.498 0-.898-.01-1.2-.028zm16.956 2.426c-.32.79-.545 1.589-.677 2.397a15.603 15.603 0 0 0-.197 2.51c0 .96.066 1.905.197 2.836.132.93.377 1.763.734 2.496a4.581 4.581 0 0 0 1.467 1.763c.62.442 1.41.663 2.37.663 1.034 0 1.857-.258 2.469-.775a5.123 5.123 0 0 0 1.41-1.933c.33-.77.546-1.598.65-2.482.103-.884.154-1.693.154-2.426 0-.752-.051-1.57-.155-2.454a9.065 9.065 0 0 0-.635-2.469 4.781 4.781 0 0 0-1.424-1.904c-.63-.507-1.463-.761-2.497-.761-.96 0-1.764.225-2.413.677-.648.451-1.133 1.072-1.453 1.862zm-1.015 13.37c-2.013-1.73-3.02-4.494-3.02-8.293 0-1.542.175-2.929.523-4.16.348-1.232.856-2.28 1.523-3.146a6.802 6.802 0 0 1 2.47-2.003c.977-.47 2.106-.705 3.385-.705 1.26 0 2.384.23 3.371.691a6.523 6.523 0 0 1 2.469 1.989c.658.865 1.161 1.918 1.51 3.16.347 1.24.521 2.632.521 4.174 0 1.542-.174 2.93-.522 4.16-.348 1.233-.85 2.281-1.509 3.146a6.523 6.523 0 0 1-2.469 1.989c-.987.46-2.111.691-3.371.691-1.994 0-3.621-.564-4.881-1.693zm30.612-18.053l.17.14v19.211c-.528.094-1.13.141-1.807.141s-1.279-.037-1.805-.113l-6.01-11.82a110.402 110.402 0 0 1-1.777-3.92l-.113.028c.17 2.915.254 5.219.254 6.911v8.801a8.573 8.573 0 0 1-1.41.113 8.07 8.07 0 0 1-1.383-.113V1.395a10.26 10.26 0 0 1 1.791-.141c.668 0 1.265.037 1.792.113l5.953 11.82c.263.563.611 1.33 1.044 2.298.432.969.705 1.566.818 1.791l.113-.028c-.15-2.407-.226-4.776-.226-7.108V3.116c0-.677.118-1.157.353-1.439.235-.282.653-.423 1.255-.423h.988zm19.185 0l.17.14v19.211c-.527.094-1.129.141-1.806.141s-1.28-.037-1.806-.113l-6.01-11.82a110.402 110.402 0 0 1-1.777-3.92l-.113.028c.17 2.915.254 5.219.254 6.911v8.801a8.573 8.573 0 0 1-1.41.113 8.07 8.07 0 0 1-1.383-.113V1.395a10.26 10.26 0 0 1 1.792-.141c.667 0 1.265.037 1.791.113l5.953 11.82c.264.563.612 1.33 1.044 2.298.433.969.706 1.566.818 1.791l.113-.028c-.15-2.407-.225-4.776-.225-7.108V3.116c0-.677.117-1.157.352-1.439.235-.282.654-.423 1.256-.423h.987zm8.239 15.486l-.029 1.44a18.812 18.812 0 0 1 1.863-.086H161c0 .508-.028.894-.085 1.157-.169.94-.808 1.41-1.918 1.41h-8.38c-.526 0-.945-.164-1.255-.493-.31-.33-.466-.785-.466-1.368V1.536l.198-.17h11.342c.056.302.084.701.084 1.2 0 .498-.075.945-.225 1.34h-8.465l.029 1.833v3.95l1.749-.029h5.304c.094.339.141.757.141 1.255 0 .499-.047.908-.14 1.227h-5.305c-.734 0-1.317-.009-1.75-.028v4.626zM16.091 39.336c-.123.432-.343.888-.663 1.368-.319.48-.638.84-.957 1.08-1.596-.192-2.762-.876-3.498-2.052C9.377 41.244 7.634 42 5.744 42c-.957 0-1.798-.15-2.522-.45-.724-.3-1.326-.702-1.804-1.206A4.887 4.887 0 0 1 .35 38.616 5.909 5.909 0 0 1 0 36.6c0-1.008.178-1.89.534-2.646a5.107 5.107 0 0 1 1.51-1.89 7 7 0 0 1 2.283-1.152c.871-.264 1.822-.396 2.853-.396 1.326 0 2.357.036 3.093.108v-.972c0-1.824-.908-2.736-2.724-2.736-1.228 0-3.094.42-5.597 1.26-.688-.744-1.105-1.86-1.252-3.348a20.842 20.842 0 0 1 8.064-1.62c1.84 0 3.35.504 4.529 1.512 1.178 1.008 1.767 2.532 1.767 4.572v7.38c0 1.272.344 2.16 1.031 2.664zm-9.279-.9c1.227 0 2.381-.528 3.461-1.584V33.72l-1.141-.072a16.43 16.43 0 0 0-1.068-.036c-1.08 0-1.902.198-2.467.594-.565.396-.847 1.05-.847 1.962 0 .72.184 1.278.552 1.674.369.396.872.594 1.51.594zm18.97-.396h1.142c.27.672.405 1.32.405 1.944 0 .624-.037 1.08-.11 1.368-1.498.216-2.689.324-3.572.324-1.424 0-2.467-.354-3.13-1.062-.663-.708-.994-1.818-.994-3.33V15.252L19.78 15h1.841c.958 0 1.633.222 2.026.666.392.444.589 1.194.589 2.25v18.468c0 1.104.515 1.656 1.546 1.656zm13.926-14.436c.147.576.221 1.14.221 1.692s-.074 1.116-.221 1.692l-4.455-.072v9.468c0 1.104.527 1.656 1.583 1.656h2.283c.245.72.368 1.404.368 2.052 0 .648-.037 1.068-.11 1.26-1.498.216-2.97.324-4.419.324-2.946 0-4.419-1.464-4.419-4.392V26.952l-2.798.036c-.123-.48-.184-1.044-.184-1.692 0-.648.061-1.212.184-1.692l2.798.036v-2.592c0-1.056.197-1.8.59-2.232.392-.432 1.067-.648 2.025-.648h1.84l.259.216v5.292l4.455-.072zM56.395 34.08H46.232c.074 1.32.387 2.358.94 3.114.552.756 1.515 1.134 2.89 1.134 1.424 0 3.056-.408 4.897-1.224.712.72 1.166 1.668 1.363 2.844-1.964 1.368-4.32 2.052-7.07 2.052-2.602 0-4.572-.786-5.91-2.358s-2.007-3.906-2.007-7.002c0-1.44.172-2.742.516-3.906.343-1.164.847-2.16 1.51-2.988a6.844 6.844 0 0 1 2.43-1.926c.957-.456 2.05-.684 3.277-.684 1.252 0 2.356.186 3.314.558.957.372 1.767.9 2.43 1.584a6.618 6.618 0 0 1 1.491 2.43c.332.936.497 1.956.497 3.06 0 .6-.036 1.17-.11 1.71-.074.54-.172 1.074-.295 1.602zm-7.106-7.56c-1.915 0-2.946 1.416-3.093 4.248h6.112v-.432c0-1.152-.245-2.076-.736-2.772-.491-.696-1.252-1.044-2.283-1.044zm10.096-.72c.098-.432.3-.888.607-1.368.307-.48.62-.84.94-1.08 1.988.24 3.35 1.32 4.087 3.24.933-2.136 2.491-3.204 4.676-3.204.81 0 1.547.084 2.21.252 0 1.68-.393 3.144-1.179 4.392-.368-.12-.933-.204-1.694-.252-1.424 0-2.577.744-3.461 2.232v11.484c-.736.12-1.528.18-2.375.18s-1.663-.06-2.449-.18V29.508c0-1.704-.454-2.94-1.362-3.708zm29.943 3.672v7.848c0 1.536.258 2.676.773 3.42-.785.672-1.73 1.008-2.835 1.008-1.055 0-1.78-.234-2.172-.702-.393-.468-.59-1.206-.59-2.214v-8.388c0-1.08-.135-1.836-.405-2.268-.27-.432-.773-.648-1.51-.648-1.3 0-2.515.576-3.645 1.728v12.24c-.368.072-.754.12-1.16.144a20.853 20.853 0 0 1-2.467 0 8.735 8.735 0 0 1-1.16-.144v-17.82l.221-.252h1.842c1.374 0 2.233.72 2.577 2.16 1.792-1.512 3.572-2.268 5.34-2.268 1.767 0 3.074.558 3.92 1.674.848 1.116 1.271 2.61 1.271 4.482zm19.412 9.864c-.122.432-.343.888-.662 1.368-.32.48-.639.84-.958 1.08-1.595-.192-2.762-.876-3.498-2.052-1.596 1.512-3.338 2.268-5.229 2.268-.957 0-1.798-.15-2.522-.45-.724-.3-1.326-.702-1.804-1.206a4.887 4.887 0 0 1-1.068-1.728 5.909 5.909 0 0 1-.35-2.016c0-1.008.178-1.89.534-2.646a5.107 5.107 0 0 1 1.51-1.89 7 7 0 0 1 2.283-1.152c.871-.264 1.822-.396 2.853-.396 1.326 0 2.357.036 3.093.108v-.972c0-1.824-.908-2.736-2.724-2.736-1.228 0-3.093.42-5.597 1.26-.688-.744-1.105-1.86-1.252-3.348a20.842 20.842 0 0 1 8.064-1.62c1.84 0 3.35.504 4.529 1.512 1.178 1.008 1.767 2.532 1.767 4.572v7.38c0 1.272.344 2.16 1.031 2.664zm-9.279-.9c1.228 0 2.381-.528 3.461-1.584V33.72l-1.141-.072a16.43 16.43 0 0 0-1.068-.036c-1.08 0-1.902.198-2.467.594-.565.396-.847 1.05-.847 1.962 0 .72.184 1.278.552 1.674.369.396.872.594 1.51.594zm27.955-8.964v7.848c0 1.536.258 2.676.773 3.42-.785.672-1.73 1.008-2.835 1.008-1.056 0-1.78-.234-2.173-.702-.392-.468-.589-1.206-.589-2.214v-8.388c0-1.08-.135-1.836-.405-2.268-.27-.432-.773-.648-1.51-.648-1.3 0-2.516.576-3.645 1.728v12.24c-.368.072-.755.12-1.16.144a20.853 20.853 0 0 1-2.467 0 8.735 8.735 0 0 1-1.16-.144v-17.82l.221-.252h1.841c1.375 0 2.234.72 2.578 2.16 1.792-1.512 3.572-2.268 5.34-2.268 1.767 0 3.074.558 3.92 1.674.848 1.116 1.271 2.61 1.271 4.482zm13.926 1.584c0-1.44-.178-2.532-.534-3.276-.356-.744-1.074-1.116-2.154-1.116-1.964 0-2.946 1.992-2.946 5.976 0 1.968.282 3.396.847 4.284.564.888 1.473 1.332 2.725 1.332.638 0 1.325-.132 2.062-.396.736-.264 1.497-.684 2.283-1.26.392.24.78.63 1.16 1.17.38.54.62 1.05.718 1.53-.835.816-1.86 1.47-3.075 1.962a10.06 10.06 0 0 1-3.811.738c-2.578 0-4.53-.858-5.855-2.574-1.325-1.716-1.988-4.074-1.988-7.074 0-1.536.215-2.88.644-4.032.43-1.152 1.013-2.112 1.75-2.88a7.249 7.249 0 0 1 2.522-1.728 7.8 7.8 0 0 1 2.964-.576c1.08 0 2.056.15 2.927.45.872.3 1.608.708 2.21 1.224a5.479 5.479 0 0 1 1.399 1.818c.331.696.497 1.428.497 2.196 0 .768-.203 1.362-.608 1.782-.405.42-1.012.63-1.823.63-.736 0-1.374-.06-1.914-.18zm21.253 3.024h-10.163c.074 1.32.387 2.358.94 3.114.551.756 1.515 1.134 2.89 1.134 1.423 0 3.056-.408 4.897-1.224.712.72 1.166 1.668 1.362 2.844-1.964 1.368-4.32 2.052-7.07 2.052-2.602 0-4.572-.786-5.91-2.358-1.337-1.572-2.006-3.906-2.006-7.002 0-1.44.172-2.742.515-3.906.344-1.164.847-2.16 1.51-2.988a6.844 6.844 0 0 1 2.43-1.926c.958-.456 2.05-.684 3.277-.684 1.252 0 2.357.186 3.314.558.958.372 1.768.9 2.43 1.584a6.618 6.618 0 0 1 1.492 2.43c.331.936.497 1.956.497 3.06 0 .6-.037 1.17-.11 1.71-.074.54-.172 1.074-.295 1.602zm-7.107-7.56c-1.914 0-2.945 1.416-3.093 4.248h6.113v-.432c0-1.152-.246-2.076-.737-2.772-.49-.696-1.252-1.044-2.283-1.044z" fill="#FFF"/><path d="M187 45c-12.15 0-22-10.073-22-22.5S174.85 0 187 0s22 10.073 22 22.5S199.15 45 187 45z" fill="url(#a)"/><path d="M188 4c-7.187 0-13 5.634-13 12.6 0 9.45 13 23.4 13 23.4s13-13.95 13-23.4C201 9.634 195.187 4 188 4zm0 18c-2.393 0-4.333-2.11-4.333-4.714 0-2.604 1.94-4.715 4.333-4.715 2.393 0 4.333 2.111 4.333 4.715 0 2.603-1.94 4.714-4.333 4.714z" fill="#FFF"/></g></svg>