<svg width="43" height="35" xmlns="http://www.w3.org/2000/svg" xmlns:xlink="http://www.w3.org/1999/xlink"><defs><path d="M6.9.6C1.5 2.6-1.2 8.6.7 14c2-4.6 7-4.7 10.7-3.3 4.6 1 9.8.7 9-2.7A10.2 10.2 0 0 0 7 .6" id="a"/><path id="c" d="M0 34h42.5V.2H0z"/></defs><g fill="none" fill-rule="evenodd"><g fill="#DADADA"><path d="M23.4 9.8c.1-1.2.5-2.1 1.1-2.8.6-.6 1.5-1 2.4-1 1 0 2 .4 2.5 1 .7.7 1 1.6 1.1 2.9 0 .2-.2.3-.4.3h-6.3c-.2 0-.4-.1-.4-.4zm9.8 5.2c.2-.9-.3-1-.6-1.1h-.2a1 1 0 0 0-.7.2l-1.1 1-1 .7a4.2 4.2 0 0 1-2.4.7c-1.4 0-2.7-.8-3.3-2a5 5 0 0 1-.5-2.2.4.4 0 0 1 .4-.4h7c1 0 1.7-.1 2.2-.4.4-.2.7-.7.7-1.6a6 6 0 0 0-3-5.1 7 7 0 0 0-3.6-1c-1 0-2 .2-3 .6a6 6 0 0 0-3.6 3.8 9 9 0 0 0-.5 3c0 2.3.7 4 2 5.4 1.2 1.3 3 2 5.3 2 1 0 1.8-.2 2.7-.4 1.4-.5 3-2 3.2-3.2z"/><path d="M21.3.1a11.1 11.1 0 1 1 0 22.2 11.1 11.1 0 0 1 0-22.2"/></g><g transform="translate(10.8 .9)"><mask id="b" fill="#fff"><use xlink:href="#a"/></mask><path d="M6.9.6C1.5 2.6-1.2 8.6.7 14c2-4.6 7-4.7 10.7-3.3 4.6 1 9.8.7 9-2.7A10.2 10.2 0 0 0 7 .6" mask="url(#b)"/></g><g><path d="M23.4 9.8c.1-1.2.5-2.1 1.1-2.8.6-.7 1.5-1 2.4-1 1 0 2 .3 2.5 1 .7.7 1 1.6 1.1 2.8 0 .3-.2.4-.4.4h-6.3c-.2 0-.4-.2-.4-.4zM32 14a1 1 0 0 0-.3.2l-1.1 1-1 .7a4.2 4.2 0 0 1-2.4.7c-1.4 0-2.7-.8-3.3-2a5 5 0 0 1-.5-2.2.4.4 0 0 1 .4-.4h7l1.6-.1v-.6A11 11 0 0 0 30 4.4c-.9-.3-1.9-.5-3-.5-1 0-2 .1-3 .5a6 6 0 0 0-3.6 3.8 9 9 0 0 0-.5 3c0 2.3.7 4 2 5.4 1.2 1.3 3 2 5.3 2 .9 0 1.8-.2 2.6-.4a11 11 0 0 0 2.1-4.3z" fill="#FFF"/><path d="M3 30L3 28.8c-.2-.3-.5-.4-1-.4-.4 0-.7.1-.9.4l-.2 1v1.4H2c.5 0 .8 0 1-.4l.2-1m.8 0c0 1.6-.6 2.3-2 2.3H1v1.9H0v-4.2c0-1.5.6-2.3 2-2.3 1.2 0 1.9.8 1.9 2.3M7.5 30c0-.6 0-1-.2-1.1-.1-.3-.4-.4-.9-.4-.4 0-.7.1-.9.4l-.2 1c0 .5 0 .8.2 1 .2.3.5.4 1 .4.4 0 .7 0 .8-.4.2-.2.2-.5.2-1zm.6-3.3l-.4.5-1.3-.8-1.3.8-.4-.5 1.7-1 1.7 1zm.3 3.2c0 1.6-.7 2.3-2 2.3s-2-.7-2-2.3c0-1.5.7-2.3 2-2.3s2 .8 2 2.3zM11.1 32.3c-1.4 0-2-.6-2-1.7v-4.9h.7v4.9c0 .2.1.4.3.5.2.2.5.2 1 .2v1zM29.7 32.3h-.8v-2.4c0-.5 0-.8-.2-1-.2-.3-.5-.4-1-.4-.4 0-.7.1-.9.4l-.2 1v2.4h-.8v-2.4c0-.5 0-.8-.2-1-.2-.3-.5-.4-1-.4-.4 0-.7.1-.9.4l-.2 1v2.4h-.8v-2.4c0-1.5.7-2.3 2-2.3.6 0 1.2.2 1.5.7.3-.5.8-.7 1.5-.7 1.3 0 2 .8 2 2.3v2.4zM33.4 30c0-.6 0-1-.2-1.1-.2-.3-.5-.4-.9-.4s-.7.1-1 .4l-.1 1v1.4h1.1c.4 0 .7 0 1-.4l.1-1zm.9 0c0 1.5-.7 2.3-2 2.3h-1.1V34h-.8v-4.2c0-1.5.6-2.3 2-2.3 1.2 0 1.9.8 1.9 2.3zM37 32.3c-1.4 0-2.1-.6-2.1-1.7v-4.9h.8v4.9c0 .2 0 .4.2.5.2.2.5.2 1 .2v1zM40.3 30c0-.6-.1-1-.2-1.1-.2-.3-.5-.4-1-.4-.4 0-.7.1-.9.4l-.2 1c0 .5 0 .8.2 1 .2.3.5.4 1 .4.4 0 .7 0 .9-.4l.2-1zm.8 0c0 1.5-.7 2.2-2 2.2s-2-.7-2-2.3c0-1.5.7-2.3 2-2.3s2 .8 2 2.3z" fill="#DADADA"/><mask id="d" fill="#fff"><use xlink:href="#c"/></mask><path d="M41.7 32.3h.8v-4.7h-.8v4.7zm0-5.7h.8v-.9h-.8v1zM14.3 29a1 1 0 0 0-1-.7 1 1 0 0 0-.9.6v.7h2l-.1-.7zm-2 1.2c0 .8.4 1.3 1.2 1.3.5 0 .8-.1 1.1-.5l.6.6c-.5.5-1 .7-1.7.7-1.2 0-2.1-.6-2.1-2.4 0-1.5.8-2.3 2-2.3s2 .9 2 2.2v.4h-3zM21 29a1 1 0 0 0-.9-.7 1 1 0 0 0-1 .6v.7h2v-.7zm-2 1.2c0 .8.5 1.3 1.2 1.3.6 0 .8-.1 1.2-.5l.6.6c-.5.5-1 .7-1.8.7-1.1 0-2-.6-2-2.4 0-1.5.7-2.3 2-2.3 1.1 0 1.9.9 1.9 2.2v.4h-3zM3 30L3 28.8c-.2-.3-.5-.4-1-.4-.4 0-.7.1-.9.4l-.2 1v1.4H2c.5 0 .8 0 1-.4l.2-1m.8 0c0 1.6-.6 2.3-2 2.3H1v1.9H0v-4.2c0-1.5.6-2.3 2-2.3 1.2 0 1.9.8 1.9 2.3M7.5 30c0-.6 0-1-.2-1.1-.1-.3-.4-.4-.9-.4-.4 0-.7.1-.9.4l-.2 1c0 .5 0 .8.2 1 .2.3.5.4 1 .4.4 0 .7 0 .8-.4.2-.2.2-.5.2-1zm.6-3.3l-.4.5-1.3-.8-1.3.8-.4-.5 1.7-1 1.7 1zm.3 3.2c0 1.6-.7 2.3-2 2.3s-2-.7-2-2.3c0-1.5.7-2.3 2-2.3s2 .8 2 2.3zM11.1 32.3c-1.4 0-2-.6-2-1.7v-4.9h.7v4.9c0 .2.1.4.3.5.2.2.5.2 1 .2v1zM29.7 32.3h-.8v-2.4c0-.5 0-.8-.2-1-.2-.3-.5-.4-1-.4-.4 0-.7.1-.9.4l-.2 1v2.4h-.8v-2.4c0-.5 0-.8-.2-1-.2-.3-.5-.4-1-.4-.4 0-.7.1-.9.4l-.2 1v2.4h-.8v-2.4c0-1.5.7-2.3 2-2.3.6 0 1.2.2 1.5.7.3-.5.8-.7 1.5-.7 1.3 0 2 .8 2 2.3v2.4zM33.4 30c0-.6 0-1-.2-1.1-.2-.3-.5-.4-.9-.4s-.7.1-1 .4l-.1 1v1.4h1.1c.4 0 .7 0 1-.4l.1-1zm.9 0c0 1.5-.7 2.3-2 2.3h-1.1V34h-.8v-4.2c0-1.5.6-2.3 2-2.3 1.2 0 1.9.8 1.9 2.3zM37 32.3c-1.4 0-2.1-.6-2.1-1.7v-4.9h.8v4.9c0 .2 0 .4.2.5.2.2.5.2 1 .2v1zM40.3 30c0-.6-.1-1-.2-1.1-.2-.3-.5-.4-1-.4-.4 0-.7.1-.9.4l-.2 1c0 .5 0 .8.2 1 .2.3.5.4 1 .4.4 0 .7 0 .9-.4l.2-1zm.8 0c0 1.5-.7 2.2-2 2.2s-2-.7-2-2.3c0-1.5.7-2.3 2-2.3s2 .8 2 2.3z" fill="#DADADA" mask="url(#d)"/><path d="M41.7 32.3h.8v-4.7h-.8v4.7zm0-5.7h.8v-.9h-.8v1zM14.3 29a1 1 0 0 0-1-.7 1 1 0 0 0-.9.6v.7h2l-.1-.7zm-2 1.2c0 .8.4 1.3 1.2 1.3.5 0 .8-.1 1.1-.5l.6.6c-.5.5-1 .7-1.7.7-1.2 0-2.1-.6-2.1-2.4 0-1.5.8-2.3 2-2.3s2 .9 2 2.2v.4h-3zM21 29a1 1 0 0 0-.9-.7 1 1 0 0 0-1 .6v.7h2v-.7zm-2 1.2c0 .8.5 1.3 1.2 1.3.6 0 .8-.1 1.2-.5l.6.6c-.5.5-1 .7-1.8.7-1.1 0-2-.6-2-2.4 0-1.5.7-2.3 2-2.3 1.1 0 1.9.9 1.9 2.2v.4h-3z" fill="#DADADA" mask="url(#d)"/></g></g></svg>