<svg width="136" height="29" xmlns="http://www.w3.org/2000/svg"><defs><linearGradient x1="1.572%" y1="100%" x2="97.17%" y2="3.017%" id="a"><stop stop-color="#00DEFF" offset="0%"/><stop stop-color="#066EE7" offset="39.798%"/><stop stop-color="#F60CB9" offset="100%"/></linearGradient></defs><g fill="none" fill-rule="evenodd"><path d="M27.612 12.075h3.668c0 .269-.019.525-.055.77-.111.623-.535.935-1.272.935h-4.81c-.344 0-.62-.107-.83-.32-.209-.215-.313-.511-.313-.89V1.275l.129-.11h.737c.406 0 .691.098.857.293.166.196.249.514.249.954v9.736a17.04 17.04 0 0 1 1.64-.073zm12.072-1.357l-1.106.018h-2.525l-1.069-.018-.976 3.062a3.771 3.771 0 0 1-.83.073c-.344 0-.67-.042-.977-.128l-.055-.092 4.165-12.395c.258-.049.633-.073 1.124-.073.492 0 .86.024 1.106.073l4.129 12.395c-.258.171-.59.257-.996.257-.405 0-.694-.073-.866-.22-.172-.147-.32-.416-.442-.807l-.682-2.145zM35.482 9.14l.94-.018h1.843c.504.012.81.018.921.018l-.847-2.659a75.635 75.635 0 0 1-.977-3.318h-.092a37.571 37.571 0 0 1-.72 2.658l-1.068 3.319zm17.472 4.694l-4.073-.037-.111-.146V1.348l.11-.128 3.834-.055c1.34 0 2.344.287 3.013.862.67.574 1.005 1.393 1.005 2.457 0 .587-.16 1.11-.48 1.567-.319.459-.737.792-1.253 1 .307.098.605.25.894.458.289.208.538.452.747.734.208.28.377.592.506.935.13.342.194.703.194 1.082 0 1.075-.363 1.94-1.087 2.594-.725.654-1.825.981-3.3.981zm-2.249-1.467l2.23-.018c.455 0 .836-.061 1.143-.184a1.96 1.96 0 0 0 .737-.485c.184-.202.316-.434.396-.697.08-.263.12-.547.12-.853 0-.269-.046-.535-.138-.797a1.905 1.905 0 0 0-.442-.706 2.245 2.245 0 0 0-.784-.505c-.32-.128-.7-.192-1.142-.192h-2.12v4.437zm0-9.736v3.795h1.935c.393 0 .725-.049.995-.146.27-.098.489-.233.655-.404.166-.17.285-.373.36-.605a2.41 2.41 0 0 0 .11-.733c0-1.26-.694-1.889-2.083-1.889h-1.189c-.325 0-.586-.006-.783-.018zm11.077 1.577a7.22 7.22 0 0 0-.443 1.558c-.086.526-.129 1.07-.129 1.632 0 .624.043 1.238.13 1.843.085.605.245 1.146.478 1.623.234.476.553.858.959 1.146.405.287.921.43 1.548.43.676 0 1.213-.168 1.613-.504.399-.336.706-.755.921-1.256a5.783 5.783 0 0 0 .424-1.613c.068-.575.101-1.1.101-1.577 0-.49-.033-1.02-.101-1.595a5.87 5.87 0 0 0-.415-1.605 3.11 3.11 0 0 0-.93-1.237c-.412-.33-.956-.495-1.632-.495-.626 0-1.151.146-1.575.44-.424.293-.74.696-.95 1.21zm-.664 8.69c-1.315-1.124-1.972-2.92-1.972-5.39 0-1.002.114-1.904.341-2.704.227-.801.56-1.482.995-2.045a4.439 4.439 0 0 1 1.613-1.302C62.734 1.153 63.47 1 64.306 1c.824 0 1.558.15 2.203.45.645.299 1.182.73 1.613 1.292.43.562.758 1.247.986 2.053.227.807.34 1.712.34 2.714 0 1.003-.113 1.904-.34 2.705-.228.8-.556 1.482-.986 2.044-.43.562-.968.993-1.613 1.293-.645.3-1.38.449-2.203.449-1.302 0-2.365-.367-3.188-1.1zM81.115 1.166l.11.092v12.486a6.795 6.795 0 0 1-1.18.092 8.46 8.46 0 0 1-1.179-.073l-3.925-7.683A71.588 71.588 0 0 1 73.78 3.53l-.074.019c.11 1.894.166 3.392.166 4.492v5.72a5.627 5.627 0 0 1-.922.074c-.32 0-.62-.024-.903-.073V1.257a6.734 6.734 0 0 1 1.17-.092c.437 0 .827.024 1.17.073l3.89 7.683c.171.367.399.865.681 1.494.283.63.461 1.018.535 1.165l.074-.019a73.694 73.694 0 0 1-.148-4.62V2.375c0-.44.077-.752.23-.935.154-.183.427-.275.82-.275h.646zm12.532 0l.11.092v12.486a6.795 6.795 0 0 1-1.179.092 8.46 8.46 0 0 1-1.18-.073l-3.925-7.683a71.588 71.588 0 0 1-1.161-2.549l-.074.019c.11 1.894.166 3.392.166 4.492v5.72a5.627 5.627 0 0 1-.921.074c-.32 0-.62-.024-.903-.073V1.257a6.734 6.734 0 0 1 1.17-.092c.436 0 .826.024 1.17.073l3.889 7.683c.172.367.4.865.682 1.494.282.63.46 1.018.534 1.165l.074-.019a73.694 73.694 0 0 1-.147-4.62V2.375c0-.44.076-.752.23-.935.153-.183.427-.275.82-.275h.645zm5.382 10.066l-.019.935a12.35 12.35 0 0 1 1.217-.055H105c0 .33-.018.581-.055.752-.11.611-.529.917-1.254.917h-5.473c-.344 0-.618-.107-.82-.32-.203-.215-.304-.511-.304-.89V1.348l.129-.11h7.408c.037.196.056.456.056.78s-.05.614-.148.87H99.01l.019 1.192v2.567l1.142-.018h3.465c.062.22.092.492.092.816 0 .324-.03.59-.092.798h-3.465c-.479 0-.86-.007-1.142-.019v3.007zM10.464 26.224c-.08.288-.223.592-.43.912-.208.32-.416.56-.623.72-1.038-.128-1.796-.584-2.275-1.368C6.098 27.496 4.965 28 3.736 28c-.623 0-1.17-.1-1.64-.3-.472-.2-.863-.468-1.174-.804a3.273 3.273 0 0 1-.695-1.152A4.028 4.028 0 0 1 0 24.4c0-.672.116-1.26.347-1.764.232-.504.559-.924.982-1.26a4.511 4.511 0 0 1 1.485-.768 6.23 6.23 0 0 1 1.855-.264c.862 0 1.533.024 2.012.072v-.648c0-1.216-.59-1.824-1.772-1.824-.798 0-2.012.28-3.64.84-.447-.496-.718-1.24-.814-2.232 1.692-.72 3.44-1.08 5.244-1.08 1.197 0 2.18.336 2.945 1.008.767.672 1.15 1.688 1.15 3.048v4.92c0 .848.223 1.44.67 1.776zm-6.034-.6c.798 0 1.548-.352 2.25-1.056V22.48l-.741-.048c-.24-.016-.471-.024-.695-.024-.702 0-1.237.132-1.604.396s-.551.7-.551 1.308c0 .48.12.852.36 1.116.239.264.566.396.98.396zm12.336-.264h.743c.175.448.263.88.263 1.296 0 .416-.024.72-.072.912-.973.144-1.748.216-2.322.216-.926 0-1.605-.236-2.036-.708-.43-.472-.646-1.212-.646-2.22V10.168l.167-.168h1.198c.622 0 1.061.148 1.317.444.255.296.383.796.383 1.5v12.312c0 .736.335 1.104 1.005 1.104zm9.056-9.624c.096.384.144.76.144 1.128 0 .368-.048.744-.144 1.128l-2.897-.048v6.312c0 .736.343 1.104 1.03 1.104h1.484c.16.48.24.936.24 1.368 0 .432-.024.712-.072.84-.974.144-1.932.216-2.874.216-1.915 0-2.873-.976-2.873-2.928v-6.888l-1.82.024c-.08-.32-.12-.696-.12-1.128 0-.432.04-.808.12-1.128l1.82.024v-1.728c0-.704.128-1.2.383-1.488.256-.288.695-.432 1.317-.432h1.197l.168.144v3.528l2.897-.048zm10.852 6.984h-6.609c.048.88.252 1.572.61 2.076.36.504.987.756 1.88.756.927 0 1.988-.272 3.185-.816.463.48.759 1.112.886 1.896C35.35 27.544 33.816 28 32.03 28c-1.692 0-2.973-.524-3.843-1.572-.87-1.048-1.305-2.604-1.305-4.668 0-.96.111-1.828.335-2.604.223-.776.55-1.44.982-1.992a4.47 4.47 0 0 1 1.58-1.284c.623-.304 1.333-.456 2.131-.456.814 0 1.533.124 2.155.372.623.248 1.15.6 1.58 1.056.432.456.755.996.97 1.62a6.21 6.21 0 0 1 .324 2.04c0 .4-.024.78-.072 1.14-.048.36-.112.716-.192 1.068zm-4.621-5.04c-1.245 0-1.916.944-2.012 2.832h3.975v-.288c0-.768-.16-1.384-.479-1.848-.319-.464-.814-.696-1.484-.696zm6.565-.48c.064-.288.196-.592.396-.912.2-.32.403-.56.61-.72 1.293.16 2.18.88 2.658 2.16.607-1.424 1.62-2.136 3.041-2.136.527 0 1.006.056 1.437.168 0 1.12-.256 2.096-.766 2.928-.24-.08-.607-.136-1.102-.168-.926 0-1.676.496-2.25 1.488v7.656c-.48.08-.994.12-1.545.12-.551 0-1.082-.04-1.593-.12v-7.992c0-1.136-.295-1.96-.886-2.472zm19.473 2.448v5.232c0 1.024.167 1.784.503 2.28-.511.448-1.126.672-1.844.672-.687 0-1.158-.156-1.413-.468-.255-.312-.383-.804-.383-1.476v-5.592c0-.72-.088-1.224-.264-1.512-.175-.288-.502-.432-.981-.432-.846 0-1.637.384-2.371 1.152v8.16c-.24.048-.49.08-.754.096a13.229 13.229 0 0 1-1.605 0 5.548 5.548 0 0 1-.754-.096v-11.88l.144-.168h1.197c.894 0 1.453.48 1.676 1.44 1.166-1.008 2.323-1.512 3.472-1.512 1.15 0 2 .372 2.55 1.116.551.744.827 1.74.827 2.988zm12.624 6.576c-.08.288-.224.592-.431.912-.208.32-.416.56-.623.72-1.038-.128-1.796-.584-2.275-1.368-1.038 1.008-2.17 1.512-3.4 1.512-.623 0-1.17-.1-1.64-.3-.471-.2-.862-.468-1.174-.804a3.273 3.273 0 0 1-.694-1.152 4.028 4.028 0 0 1-.228-1.344c0-.672.116-1.26.348-1.764.231-.504.558-.924.981-1.26a4.511 4.511 0 0 1 1.485-.768 6.23 6.23 0 0 1 1.856-.264c.862 0 1.532.024 2.011.072v-.648c0-1.216-.59-1.824-1.772-1.824-.798 0-2.011.28-3.64.84-.447-.496-.718-1.24-.814-2.232 1.692-.72 3.44-1.08 5.244-1.08 1.198 0 2.18.336 2.946 1.008.766.672 1.15 1.688 1.15 3.048v4.92c0 .848.223 1.44.67 1.776zm-6.035-.6c.798 0 1.549-.352 2.251-1.056V22.48l-.742-.048c-.24-.016-.471-.024-.695-.024-.702 0-1.237.132-1.604.396s-.55.7-.55 1.308c0 .48.119.852.359 1.116.239.264.566.396.981.396zm18.18-5.976v5.232c0 1.024.167 1.784.502 2.28-.51.448-1.125.672-1.843.672-.687 0-1.158-.156-1.413-.468-.256-.312-.383-.804-.383-1.476v-5.592c0-.72-.088-1.224-.264-1.512-.175-.288-.503-.432-.982-.432-.846 0-1.636.384-2.37 1.152v8.16c-.24.048-.491.08-.754.096a13.229 13.229 0 0 1-1.605 0 5.548 5.548 0 0 1-.754-.096v-11.88l.144-.168h1.197c.894 0 1.453.48 1.676 1.44 1.165-1.008 2.323-1.512 3.472-1.512 1.15 0 2 .372 2.55 1.116.551.744.827 1.74.827 2.988zm9.055 1.056c0-.96-.115-1.688-.347-2.184-.231-.496-.698-.744-1.4-.744-1.278 0-1.916 1.328-1.916 3.984 0 1.312.183 2.264.55 2.856.368.592.958.888 1.773.888.415 0 .862-.088 1.34-.264.48-.176.974-.456 1.485-.84.256.16.507.42.754.78.248.36.403.7.467 1.02-.542.544-1.209.98-2 1.308a6.402 6.402 0 0 1-2.478.492c-1.676 0-2.945-.572-3.807-1.716-.862-1.144-1.293-2.716-1.293-4.716 0-1.024.14-1.92.42-2.688.278-.768.658-1.408 1.137-1.92a4.711 4.711 0 0 1 1.64-1.152 4.964 4.964 0 0 1 1.927-.384c.703 0 1.337.1 1.904.3.567.2 1.046.472 1.437.816s.694.748.91 1.212c.215.464.323.952.323 1.464s-.132.908-.395 1.188c-.263.28-.659.42-1.185.42-.48 0-.894-.04-1.246-.12zm13.822 2.016h-6.61c.049.88.252 1.572.611 2.076.36.504.986.756 1.88.756.926 0 1.987-.272 3.185-.816.463.48.758 1.112.886 1.896-1.277.912-2.81 1.368-4.598 1.368-1.692 0-2.973-.524-3.843-1.572-.87-1.048-1.305-2.604-1.305-4.668 0-.96.112-1.828.335-2.604.224-.776.55-1.44.982-1.992a4.47 4.47 0 0 1 1.58-1.284c.623-.304 1.333-.456 2.131-.456.815 0 1.533.124 2.156.372.622.248 1.149.6 1.58 1.056.431.456.754.996.97 1.62a6.21 6.21 0 0 1 .323 2.04c0 .4-.024.78-.072 1.14-.048.36-.112.716-.191 1.068zm-4.622-5.04c-1.245 0-1.916.944-2.011 2.832h3.975v-.288c0-.768-.16-1.384-.48-1.848-.319-.464-.813-.696-1.484-.696z" fill="#066EE7"/><path d="M122 29c-7.732 0-14-6.492-14-14.5S114.268 0 122 0s14 6.492 14 14.5S129.732 29 122 29z" fill="url(#a)"/><path d="M122.5 3c-4.7 0-8.5 3.6-8.5 8.05 0 6.037 8.5 14.95 8.5 14.95s8.5-8.913 8.5-14.95C131 6.6 127.2 3 122.5 3zm0 11.5c-1.565 0-2.833-1.348-2.833-3.012 0-1.663 1.268-3.012 2.833-3.012 1.565 0 2.833 1.349 2.833 3.012 0 1.664-1.268 3.012-2.833 3.012z" fill="#FFF"/></g></svg>