<?xml version="1.0" encoding="UTF-8"?>
<svg width="43px" height="35px" viewBox="0 0 43 35" version="1.1" xmlns="http://www.w3.org/2000/svg" xmlns:xlink="http://www.w3.org/1999/xlink">
    <!-- Generator: Sketch 48.2 (47327) - http://www.bohemiancoding.com/sketch -->
    <title>Page 1</title>
    <desc>Created with Sketch.</desc>
    <defs>
        <path d="M6.85764129,0.643414571 C1.50609877,2.61889753 -1.23087534,8.55876665 0.744607612,13.9105256 C2.71002538,9.34763945 7.65495587,9.24049388 11.4406579,10.5749433 C15.9917472,11.5121965 21.1877663,11.2989876 20.4465137,7.90712676 C19.5978992,3.98494946 16.1130706,0.528151911 11.4807022,0.0573607608 C11.1323167,0.0219702537 10.7833901,0.00432911402 10.4347882,0.00432911402 C9.21690021,0.00432911402 8.00550587,0.219702537 6.85764129,0.643414571" id="path-1"></path>
        <polygon id="path-3" points="0 34.0917729 42.5162288 34.0917729 42.5162288 0.0952405085 0 0.0952405085"></polygon>
    </defs>
    <g id="Fd-mobile" stroke="none" stroke-width="1" fill="none" fill-rule="evenodd" transform="translate(-186.000000, -17.000000)">
        <g id="Page-1" transform="translate(186.000000, 17.000000)">
            <g id="Group-5" transform="translate(10.065190, 0.012987)" fill="#DADADA">
                <path d="M13.3249697,9.82277054 C13.4701032,8.63226418 13.8315842,7.69068188 14.4398248,7.03590338 C15.0696026,6.35406793 15.901983,6.00557425 16.8749514,6.00882108 C17.8889381,6.00882108 18.7429641,6.34649198 19.3759888,7.02183376 C19.990723,7.67120087 20.3359698,8.62793507 20.4452799,9.85090978 C20.4605401,10.0554604 20.2450584,10.2340364 20.0253559,10.2340364 L13.7481406,10.2340364 C13.5155589,10.2318718 13.2881722,10.0478845 13.3238874,9.82277054 L13.3249697,9.82277054 Z M23.142318,14.9679225 C23.3165648,14.110758 22.791768,13.9246061 22.508211,13.885644 C22.4540971,13.8802327 22.3999832,13.8759035 22.3392673,13.8759035 C22.0690224,13.8652972 21.8044053,13.9555592 21.5969325,14.1291567 C21.3998496,14.3088149 20.8306793,14.8434605 20.5373819,15.1032074 C20.2309888,15.3708548 19.9053312,15.6156662 19.5633312,15.8359099 C19.2161363,16.0624308 18.8371223,16.2360283 18.4387356,16.3510745 C18.0225995,16.4636314 17.5928267,16.5178536 17.161647,16.512334 C15.7472172,16.534196 14.4491323,15.7313618 13.8368874,14.4560048 C13.5078747,13.795382 13.3278918,13.0704719 13.3098178,12.3325744 C13.2974798,12.1123307 13.4659906,11.9237978 13.686126,11.9113516 C13.7020355,11.9104858 13.7181614,11.910594 13.7340709,11.9115681 L20.7775395,11.9115681 C21.7268059,11.9115681 22.4474952,11.7741187 22.9345205,11.5208655 C23.3674319,11.2968339 23.6152737,10.800068 23.6196028,9.89744775 C23.6115939,8.89558254 23.3533623,7.91157492 22.8686098,7.03482111 C22.3706534,6.10189703 21.6260458,5.34213752 20.6185527,4.74796662 C19.6108432,4.15379573 18.4171983,3.86049825 16.9972489,3.86049825 C15.9843444,3.84696977 14.9780419,4.0239223 14.0307235,4.38215649 C13.1834076,4.70283561 12.4204013,5.21204765 11.798957,5.87137171 C11.1794608,6.54444072 10.7088861,7.34067301 10.4180778,8.20801101 C10.0925285,9.16766736 9.93126896,10.1752686 9.94068478,11.188606 C9.94068478,13.477625 10.5900519,15.2558086 11.8638937,16.5696947 C13.1378437,17.8834726 14.9236032,18.5394416 17.2698748,18.5405239 C18.1651356,18.5550264 19.0569331,18.4267764 19.9117166,18.1606441 C21.3056914,17.670372 22.8749952,16.2796441 23.142318,14.9679225 Z" id="Fill-1"></path>
                <path d="M11.1940282,0.095262154 C17.3273005,0.095262154 22.2991797,5.06724961 22.2991797,11.2005219 C22.2991797,17.333686 17.3273005,22.3057816 11.1940282,22.3057816 C5.06075594,22.3057816 0.088768483,17.333686 0.088768483,11.2005219 C0.088768483,5.06724961 5.06075594,0.095262154 11.1940282,0.095262154" id="Fill-3"></path>
            </g>
            <g id="Group-8" transform="translate(10.822785, 0.878810)">
                <mask id="mask-2" fill="white">
                    <use xlink:href="#path-1"></use>
                </mask>
                <g id="Clip-7"></g>
                <path d="M6.85764129,0.643414571 C1.50609877,2.61889753 -1.23087534,8.55876665 0.744607612,13.9105256 C2.71002538,9.34763945 7.65495587,9.24049388 11.4406579,10.5749433 C15.9917472,11.5121965 21.1877663,11.2989876 20.4465137,7.90712676 C19.5978992,3.98494946 16.1130706,0.528151911 11.4807022,0.0573607608 C11.1323167,0.0219702537 10.7833901,0.00432911402 10.4347882,0.00432911402 C9.21690021,0.00432911402 8.00550587,0.219702537 6.85764129,0.643414571" id="Fill-6" mask="url(#mask-2)"></path>
            </g>
            <g id="Group-39" transform="translate(0.000000, 0.012987)">
                <path d="M23.38911,9.81732667 C23.5341353,8.62682032 23.8956163,7.68523802 24.5038568,7.03045952 C25.1337429,6.34862407 25.9661233,6.00013039 26.9389834,6.00337722 C27.9530784,6.00337722 28.8071044,6.34104812 29.4401291,7.0163899 C30.0548633,7.66575701 30.4001101,8.62249121 30.5094202,9.84546592 C30.5245721,10.0500166 30.3091987,10.2285925 30.0894962,10.2285925 L23.8122808,10.2285925 C23.5807815,10.2318393 23.3533948,10.047852 23.38911,9.82273807 L23.38911,9.81732667 Z M32.0256924,13.929985 C31.8908405,13.9684059 31.766162,14.036373 31.6609646,14.1291242 C31.4639899,14.3087825 30.8948196,14.8434281 30.6015221,15.1031749 C30.2950209,15.3708224 29.9694715,15.615742 29.6274715,15.8358774 C29.2801683,16.0623983 28.9012626,16.236104 28.5028759,16.351042 C28.0870645,16.4634907 27.6576164,16.5178211 27.2268695,16.5123015 C25.8124398,16.5342718 24.5142467,15.7314376 23.90211,14.4559723 C23.5730973,13.7953495 23.3931144,13.0704394 23.3750403,12.3325419 C23.3627024,12.1124065 23.5311049,11.9237653 23.7513486,11.9114274 C23.7672581,11.9104533 23.783384,11.9105615 23.7992935,11.9115356 L30.842762,11.9115356 C31.3522987,11.9204103 31.8609696,11.8681362 32.3579519,11.7556875 C32.3666102,11.5732153 32.3712639,11.3895527 32.3720215,11.2048077 C32.3755931,8.75463741 31.5651829,6.37254242 30.0678506,4.43299111 C29.2020278,4.05419363 28.2063316,3.86263034 27.0699391,3.86263034 C26.0571429,3.84910186 25.0508404,4.02616262 24.103522,4.38428858 C23.2562062,4.70507593 22.4930916,5.21428796 21.8717555,5.8735038 C21.2522593,6.5465728 20.7816846,7.3428051 20.4907681,8.21014309 C20.165327,9.16979945 20.0039592,10.177509 20.0134833,11.1907381 C20.0134833,13.4797571 20.6628504,15.2579407 21.9366922,16.5718268 C23.2106422,17.8857129 24.9887176,18.5394091 27.3350974,18.5404914 C28.2004873,18.5518554 29.0625221,18.4309648 29.8914392,18.1823655 C30.9027202,16.9363382 31.6309855,15.4854357 32.0256924,13.929985 Z" id="Fill-9" fill="#FFFFFF"></path>
                <path d="M3.08232918,29.9130956 C3.08232918,29.4354861 3.01014121,29.090131 2.86587348,28.8773551 C2.68697284,28.6118722 2.37960575,28.4790766 1.9437722,28.4790766 C1.50804687,28.4790766 1.20533357,28.6118722 1.03574053,28.8773551 C0.891472805,29.090131 0.819284828,29.4354861 0.819284828,29.9130956 L0.819284828,31.3384564 L1.94593675,31.3384564 C2.37884815,31.3384564 2.68621525,31.208583 2.86803804,30.9488361 C3.0108988,30.7309735 3.08232918,30.3856184 3.08232918,29.9130956 M3.90161401,29.9130956 C3.90161401,31.4694121 3.25040703,32.2475703 1.94810131,32.2475703 L0.819284828,32.2475703 L0.819284828,34.0874438 L0,34.0874438 L0,29.9141779 C0,28.3513677 0.649367103,27.5699626 1.94810131,27.5699626 C3.24683552,27.5699626 3.89804249,28.3509348 3.90161401,29.9130956" id="Fill-11" fill="#DADADA"></path>
                <path d="M7.54238808,29.9130956 C7.54238808,29.4354861 7.4702001,29.090131 7.32593238,28.8773551 C7.15352541,28.6118722 6.8511368,28.4790766 6.41898299,28.4790766 C5.98682918,28.4790766 5.68162665,28.6118722 5.50337538,28.8773551 C5.35910765,29.090131 5.28691967,29.4354861 5.28691967,29.9130956 C5.28691967,30.3907051 5.35910765,30.7360602 5.50337538,30.9488361 C5.68086905,31.208583 5.98607159,31.3384564 6.41898299,31.3384564 C6.85189439,31.3384564 7.15428301,31.208583 7.32593238,30.9488361 C7.4702001,30.7353026 7.54238808,30.3899475 7.54238808,29.9130956 Z M8.06188176,26.6781652 L7.69174251,27.1803424 L6.38435008,26.4389816 L5.07695764,27.1803424 L4.7068184,26.6781652 L6.38435008,25.7246778 L8.06188176,26.6781652 Z M8.36924886,29.9130956 C8.36924886,31.4694121 7.71988175,32.2475703 6.42114755,32.2475703 C5.12241334,32.2475703 4.47131459,31.4694121 4.46763485,29.9130956 C4.46763485,28.3509348 5.11884182,27.5699626 6.42114755,27.5699626 C7.72345327,27.5699626 8.37282038,28.3509348 8.36924886,29.9130956 Z" id="Fill-13" fill="#DADADA"></path>
                <path d="M11.1247408,32.2519427 C9.72784389,32.2519427 9.02944957,31.6868851 9.02944957,30.5570946 L9.02944957,25.7256951 L9.8487344,25.7256951 L9.8487344,30.5614237 C9.83130971,30.7658661 9.91161478,30.9665206 10.0651901,31.102563 C10.2592426,31.2613332 10.6109831,31.3409889 11.1204116,31.3417465 L11.1247408,32.2519427 Z" id="Fill-15" fill="#DADADA"></path>
                <path d="M29.69993,32.2519427 L28.8806452,32.2519427 L28.8806452,29.9088098 C28.8806452,29.432499 28.8084572,29.0884427 28.6641895,28.8763161 C28.4851806,28.6114825 28.1781382,28.4791199 27.7431705,28.4791199 C27.3079863,28.4791199 27.0035414,28.6114825 26.8296192,28.8763161 C26.6853515,29.0884427 26.6131635,29.432499 26.6131635,29.9088098 L26.6131635,32.2519427 L25.7938787,32.2519427 L25.7938787,29.9088098 C25.7938787,29.432499 25.7217989,29.0884427 25.577423,28.8763161 C25.3985223,28.6114825 25.0911552,28.4791199 24.6554299,28.4791199 C24.2195964,28.4791199 23.9151514,28.6114825 23.7418786,28.8763161 C23.5976109,29.0884427 23.5254229,29.432499 23.5254229,29.9088098 L23.5254229,32.2519427 L22.7062463,32.2519427 L22.7062463,29.9131389 C22.7062463,28.3509781 23.3556134,27.5698977 24.6543476,27.5698977 C25.3476552,27.5698977 25.8624951,27.8051851 26.1986508,28.2756515 C26.5299363,27.8051851 27.0421787,27.5698977 27.7355945,27.5698977 C29.0343287,27.5698977 29.6836959,28.3509781 29.6836959,29.9131389 L29.69993,32.2519427 Z" id="Fill-17" fill="#DADADA"></path>
                <path d="M33.4424599,29.9130956 C33.4424599,29.4354861 33.3702719,29.090131 33.2260042,28.8773551 C33.047753,28.6118722 32.7403859,28.4790766 32.3037947,28.4790766 C31.8673118,28.4790766 31.5628668,28.6118722 31.3903516,28.8773551 C31.2460839,29.090131 31.1738959,29.4354861 31.1738959,29.9130956 L31.1738959,31.3384564 L32.3005479,31.3384564 C32.7334593,31.3384564 33.0408264,31.208583 33.2227574,30.9488361 C33.3684321,30.7309735 33.4412694,30.3856184 33.4412694,29.9130956 L33.4424599,29.9130956 Z M34.2616365,29.9130956 C34.2616365,31.472226 33.6102131,32.2518995 32.3071498,32.2518995 L31.1804978,32.2518995 L31.1804978,34.0917729 L30.3654339,34.0917729 L30.3654339,29.9141779 C30.3654339,28.3513677 31.014801,27.5699626 32.3135352,27.5699626 C33.6122694,27.5699626 34.2616365,28.3509348 34.2616365,29.9130956 Z" id="Fill-19" fill="#DADADA"></path>
                <path d="M36.9543671,32.2519427 C35.5575785,32.2519427 34.8591841,31.6868851 34.8591841,30.5570946 L34.8591841,25.7256951 L35.6783607,25.7256951 L35.6783607,30.5614237 C35.6610443,30.7658661 35.7412411,30.9665206 35.8948164,31.102563 C36.0889772,31.2613332 36.4407177,31.3409889 36.950038,31.3417465 L36.9543671,32.2519427 Z" id="Fill-21" fill="#DADADA"></path>
                <path d="M40.2705334,29.9130956 C40.2705334,29.4354861 40.1983454,29.090131 40.0540777,28.8773551 C39.8808049,28.6118722 39.5760352,28.4790766 39.1395523,28.4790766 C38.7030694,28.4790766 38.3985162,28.6118722 38.226001,28.8773551 C38.0817333,29.090131 38.0095453,29.4354861 38.0095453,29.9130956 C38.0095453,30.3907051 38.0817333,30.7360602 38.226001,30.9488361 C38.4000314,31.208583 38.7043681,31.3384564 39.1395523,31.3384564 C39.5745201,31.3384564 39.8795061,31.208583 40.0540777,30.9488361 C40.1983454,30.7353026 40.2708581,30.3899475 40.2716156,29.9130956 L40.2705334,29.9130956 Z M41.08971,29.9130956 C41.08971,31.4694121 40.4403429,32.2475703 39.1416087,32.2475703 C37.8428745,32.2475703 37.1917757,31.4694121 37.1882042,29.9130956 C37.1882042,28.3509348 37.8393029,27.5699626 39.1416087,27.5699626 C40.4441308,27.5699626 41.0934979,28.3509348 41.08971,29.9130956 Z" id="Fill-23" fill="#DADADA"></path>
                <mask id="mask-4" fill="white">
                    <use xlink:href="#path-3"></use>
                </mask>
                <g id="Clip-26"></g>
                <path d="M41.696944,32.2520077 L42.5162288,32.2520077 L42.5162288,27.5699626 L41.696944,27.5699626 L41.696944,32.2520077 Z M41.696944,26.634874 L42.5162288,26.634874 L42.5162288,25.7257601 L41.696944,25.7257601 L41.696944,26.634874 Z" id="Fill-25" fill="#DADADA" mask="url(#mask-4)"></path>
                <path d="M14.2763574,28.9282655 C14.123215,28.5633211 13.7605435,28.3310642 13.3650789,28.3448091 C12.9671251,28.3307395 12.601315,28.5624553 12.4440599,28.9282655 C12.3587764,29.1265389 12.3185156,29.3412629 12.3260915,29.5570693 L14.4051485,29.5570693 C14.4104517,29.3407218 14.3675935,29.1258895 14.2796042,28.9282655 L14.2763574,28.9282655 Z M12.3282561,30.2042718 C12.3282561,30.9974737 12.7470979,31.503006 13.5046928,31.503006 C14.0241865,31.503006 14.298003,31.3567902 14.6259334,31.0288598 L15.2136106,31.5809301 C14.7395726,32.0549681 14.2925916,32.3017276 13.481965,32.3017276 C12.323927,32.3017276 11.402908,31.6912143 11.402908,29.9315376 C11.402908,28.4357205 12.1778194,27.5698977 13.3629143,27.5698977 C14.6032055,27.5698977 15.3229207,28.4811762 15.3229207,29.7940883 L15.3229207,30.2042718 L12.3282561,30.2042718 Z" id="Fill-27" fill="#DADADA" mask="url(#mask-4)"></path>
                <path d="M21.0135411,28.9282655 C20.8603987,28.5633211 20.4977272,28.3310642 20.1022626,28.3448091 C19.7043088,28.3307395 19.3384987,28.5624553 19.1812436,28.9282655 C19.09596,29.1265389 19.0556993,29.3412629 19.0632752,29.5570693 L21.1423322,29.5570693 C21.1473107,29.3407218 21.1040196,29.1257813 21.0157057,28.9282655 L21.0135411,28.9282655 Z M19.0654398,30.2042718 C19.0654398,30.9974737 19.4842816,31.503006 20.2418765,31.503006 C20.7613702,31.503006 21.0351867,31.3567902 21.3631171,31.0288598 L21.9560975,31.5852592 C21.4821677,32.0592972 21.0351867,32.3060567 20.2245601,32.3060567 C19.0665221,32.3060567 18.1455031,31.6955434 18.1455031,29.9358667 C18.1455031,28.4400496 18.9204145,27.5742268 20.1055094,27.5742268 C21.3458006,27.5742268 22.0655158,28.4855053 22.0655158,29.7984174 L22.0655158,30.2086009 L19.0654398,30.2042718 Z" id="Fill-28" fill="#DADADA" mask="url(#mask-4)"></path>
                <path d="M3.08232918,29.9130956 C3.08232918,29.4354861 3.01014121,29.090131 2.86587348,28.8773551 C2.68697284,28.6118722 2.37960575,28.4790766 1.9437722,28.4790766 C1.50804687,28.4790766 1.20533357,28.6118722 1.03574053,28.8773551 C0.891472805,29.090131 0.819284828,29.4354861 0.819284828,29.9130956 L0.819284828,31.3384564 L1.94593675,31.3384564 C2.37884815,31.3384564 2.68621525,31.208583 2.86803804,30.9488361 C3.0108988,30.7309735 3.08232918,30.3856184 3.08232918,29.9130956 M3.90161401,29.9130956 C3.90161401,31.4694121 3.25040703,32.2475703 1.94810131,32.2475703 L0.819284828,32.2475703 L0.819284828,34.0874438 L0,34.0874438 L0,29.9141779 C0,28.3513677 0.649367103,27.5699626 1.94810131,27.5699626 C3.24683552,27.5699626 3.89804249,28.3509348 3.90161401,29.9130956" id="Fill-29" fill="#DADADA" mask="url(#mask-4)"></path>
                <path d="M7.54238808,29.9130956 C7.54238808,29.4354861 7.4702001,29.090131 7.32593238,28.8773551 C7.15352541,28.6118722 6.8511368,28.4790766 6.41898299,28.4790766 C5.98682918,28.4790766 5.68162665,28.6118722 5.50337538,28.8773551 C5.35910765,29.090131 5.28691967,29.4354861 5.28691967,29.9130956 C5.28691967,30.3907051 5.35910765,30.7360602 5.50337538,30.9488361 C5.68086905,31.208583 5.98607159,31.3384564 6.41898299,31.3384564 C6.85189439,31.3384564 7.15428301,31.208583 7.32593238,30.9488361 C7.4702001,30.7353026 7.54238808,30.3899475 7.54238808,29.9130956 Z M8.06188176,26.6781652 L7.69174251,27.1803424 L6.38435008,26.4389816 L5.07695764,27.1803424 L4.7068184,26.6781652 L6.38435008,25.7246778 L8.06188176,26.6781652 Z M8.36924886,29.9130956 C8.36924886,31.4694121 7.71988175,32.2475703 6.42114755,32.2475703 C5.12241334,32.2475703 4.47131459,31.4694121 4.46763485,29.9130956 C4.46763485,28.3509348 5.11884182,27.5699626 6.42114755,27.5699626 C7.72345327,27.5699626 8.37282038,28.3509348 8.36924886,29.9130956 Z" id="Fill-30" fill="#DADADA" mask="url(#mask-4)"></path>
                <path d="M11.1247408,32.2519427 C9.72784389,32.2519427 9.02944957,31.6868851 9.02944957,30.5570946 L9.02944957,25.7256951 L9.8487344,25.7256951 L9.8487344,30.5614237 C9.83130971,30.7658661 9.91161478,30.9665206 10.0651901,31.102563 C10.2592426,31.2613332 10.6109831,31.3409889 11.1204116,31.3417465 L11.1247408,32.2519427 Z" id="Fill-31" fill="#DADADA" mask="url(#mask-4)"></path>
                <path d="M29.69993,32.2519427 L28.8806452,32.2519427 L28.8806452,29.9088098 C28.8806452,29.432499 28.8084572,29.0884427 28.6641895,28.8763161 C28.4851806,28.6114825 28.1781382,28.4791199 27.7431705,28.4791199 C27.3079863,28.4791199 27.0035414,28.6114825 26.8296192,28.8763161 C26.6853515,29.0884427 26.6131635,29.432499 26.6131635,29.9088098 L26.6131635,32.2519427 L25.7938787,32.2519427 L25.7938787,29.9088098 C25.7938787,29.432499 25.7217989,29.0884427 25.577423,28.8763161 C25.3985223,28.6114825 25.0911552,28.4791199 24.6554299,28.4791199 C24.2195964,28.4791199 23.9151514,28.6114825 23.7418786,28.8763161 C23.5976109,29.0884427 23.5254229,29.432499 23.5254229,29.9088098 L23.5254229,32.2519427 L22.7062463,32.2519427 L22.7062463,29.9131389 C22.7062463,28.3509781 23.3556134,27.5698977 24.6543476,27.5698977 C25.3476552,27.5698977 25.8624951,27.8051851 26.1986508,28.2756515 C26.5299363,27.8051851 27.0421787,27.5698977 27.7355945,27.5698977 C29.0343287,27.5698977 29.6836959,28.3509781 29.6836959,29.9131389 L29.69993,32.2519427 Z" id="Fill-32" fill="#DADADA" mask="url(#mask-4)"></path>
                <path d="M33.4424599,29.9130956 C33.4424599,29.4354861 33.3702719,29.090131 33.2260042,28.8773551 C33.047753,28.6118722 32.7403859,28.4790766 32.3037947,28.4790766 C31.8673118,28.4790766 31.5628668,28.6118722 31.3903516,28.8773551 C31.2460839,29.090131 31.1738959,29.4354861 31.1738959,29.9130956 L31.1738959,31.3384564 L32.3005479,31.3384564 C32.7334593,31.3384564 33.0408264,31.208583 33.2227574,30.9488361 C33.3684321,30.7309735 33.4412694,30.3856184 33.4412694,29.9130956 L33.4424599,29.9130956 Z M34.2616365,29.9130956 C34.2616365,31.472226 33.6102131,32.2518995 32.3071498,32.2518995 L31.1804978,32.2518995 L31.1804978,34.0917729 L30.3654339,34.0917729 L30.3654339,29.9141779 C30.3654339,28.3513677 31.014801,27.5699626 32.3135352,27.5699626 C33.6122694,27.5699626 34.2616365,28.3509348 34.2616365,29.9130956 Z" id="Fill-33" fill="#DADADA" mask="url(#mask-4)"></path>
                <path d="M36.9543671,32.2519427 C35.5575785,32.2519427 34.8591841,31.6868851 34.8591841,30.5570946 L34.8591841,25.7256951 L35.6783607,25.7256951 L35.6783607,30.5614237 C35.6610443,30.7658661 35.7412411,30.9665206 35.8948164,31.102563 C36.0889772,31.2613332 36.4407177,31.3409889 36.950038,31.3417465 L36.9543671,32.2519427 Z" id="Fill-34" fill="#DADADA" mask="url(#mask-4)"></path>
                <path d="M40.2705334,29.9130956 C40.2705334,29.4354861 40.1983454,29.090131 40.0540777,28.8773551 C39.8808049,28.6118722 39.5760352,28.4790766 39.1395523,28.4790766 C38.7030694,28.4790766 38.3985162,28.6118722 38.226001,28.8773551 C38.0817333,29.090131 38.0095453,29.4354861 38.0095453,29.9130956 C38.0095453,30.3907051 38.0817333,30.7360602 38.226001,30.9488361 C38.4000314,31.208583 38.7043681,31.3384564 39.1395523,31.3384564 C39.5745201,31.3384564 39.8795061,31.208583 40.0540777,30.9488361 C40.1983454,30.7353026 40.2708581,30.3899475 40.2716156,29.9130956 L40.2705334,29.9130956 Z M41.08971,29.9130956 C41.08971,31.4694121 40.4403429,32.2475703 39.1416087,32.2475703 C37.8428745,32.2475703 37.1917757,31.4694121 37.1882042,29.9130956 C37.1882042,28.3509348 37.8393029,27.5699626 39.1416087,27.5699626 C40.4441308,27.5699626 41.0934979,28.3509348 41.08971,29.9130956 Z" id="Fill-35" fill="#DADADA" mask="url(#mask-4)"></path>
                <path d="M41.696944,32.2520077 L42.5162288,32.2520077 L42.5162288,27.5699626 L41.696944,27.5699626 L41.696944,32.2520077 Z M41.696944,26.634874 L42.5162288,26.634874 L42.5162288,25.7257601 L41.696944,25.7257601 L41.696944,26.634874 Z" id="Fill-36" fill="#DADADA" mask="url(#mask-4)"></path>
                <path d="M14.2763574,28.9282655 C14.123215,28.5633211 13.7605435,28.3310642 13.3650789,28.3448091 C12.9671251,28.3307395 12.601315,28.5624553 12.4440599,28.9282655 C12.3587764,29.1265389 12.3185156,29.3412629 12.3260915,29.5570693 L14.4051485,29.5570693 C14.4104517,29.3407218 14.3675935,29.1258895 14.2796042,28.9282655 L14.2763574,28.9282655 Z M12.3282561,30.2042718 C12.3282561,30.9974737 12.7470979,31.503006 13.5046928,31.503006 C14.0241865,31.503006 14.298003,31.3567902 14.6259334,31.0288598 L15.2136106,31.5809301 C14.7395726,32.0549681 14.2925916,32.3017276 13.481965,32.3017276 C12.323927,32.3017276 11.402908,31.6912143 11.402908,29.9315376 C11.402908,28.4357205 12.1778194,27.5698977 13.3629143,27.5698977 C14.6032055,27.5698977 15.3229207,28.4811762 15.3229207,29.7940883 L15.3229207,30.2042718 L12.3282561,30.2042718 Z" id="Fill-37" fill="#DADADA" mask="url(#mask-4)"></path>
                <path d="M21.0135411,28.9282655 C20.8603987,28.5633211 20.4977272,28.3310642 20.1022626,28.3448091 C19.7043088,28.3307395 19.3384987,28.5624553 19.1812436,28.9282655 C19.09596,29.1265389 19.0556993,29.3412629 19.0632752,29.5570693 L21.1423322,29.5570693 C21.1473107,29.3407218 21.1040196,29.1257813 21.0157057,28.9282655 L21.0135411,28.9282655 Z M19.0654398,30.2042718 C19.0654398,30.9974737 19.4842816,31.503006 20.2418765,31.503006 C20.7613702,31.503006 21.0351867,31.3567902 21.3631171,31.0288598 L21.9560975,31.5852592 C21.4821677,32.0592972 21.0351867,32.3060567 20.2245601,32.3060567 C19.0665221,32.3060567 18.1455031,31.6955434 18.1455031,29.9358667 C18.1455031,28.4400496 18.9204145,27.5742268 20.1055094,27.5742268 C21.3458006,27.5742268 22.0655158,28.4855053 22.0655158,29.7984174 L22.0655158,30.2086009 L19.0654398,30.2042718 Z" id="Fill-38" fill="#DADADA" mask="url(#mask-4)"></path>
            </g>
        </g>
    </g>
</svg>