<svg width="14" height="11" xmlns="http://www.w3.org/2000/svg"><g fill="#066EE7" fill-rule="nonzero"><path d="M11.8 0H1.6C.7 0 0 .8 0 1.8v7.4c0 1 .7 1.8 1.6 1.8h10.2c.9 0 1.6-.8 1.6-1.8V1.8c0-1-.7-1.8-1.6-1.8zm.8 9.2c0 .6-.4 1-.8 1H1.6c-.5 0-.9-.4-.9-1V1.8c0-.5.4-1 1-1h10c.5 0 1 .5 1 1v7.4z"/><path d="M8.4 5.4l3.3-3.1c.2-.2.2-.5 0-.6a.4.4 0 0 0-.5 0L6.7 6l-.9-.8V5L2.2 1.7a.4.4 0 0 0-.6 0v.6L5 5.4 1.7 8.8c-.2.1-.2.4 0 .5l.2.2.3-.1L5.5 6l1 .9H7l.9-1 3.3 3.5a.4.4 0 0 0 .6 0v-.6L8.3 5.4z"/></g></svg>