<svg width="15" height="16" xmlns="http://www.w3.org/2000/svg"><g fill="#066EE7" fill-rule="nonzero"><path d="M11.6 10c-.3-.3-.7-.5-1-.5-.5 0-.8.2-1.1.5l-1 1h-.2l-.4-.2a11 11 0 0 1-3.3-4l.7-.7.2-.3c.7-.7.7-1.6 0-2.2l-.8-1a13.4 13.4 0 0 1-.9-.9c-.3-.3-.6-.5-1-.5s-.7.2-1 .5L.6 3c-.4.4-.6.9-.7 1.5 0 1 .2 1.9.4 2.5C1 8.3 1.7 9.6 2.8 11c1.3 1.7 3 3 4.8 4a7.2 7.2 0 0 0 3 .9c.6 0 1.2-.3 1.7-.8l.6-.6.4-.5c.3-.3.4-.7.4-1.1 0-.4-.1-.8-.4-1.1L11.6 10zm1 3.5c0 .2-.2.3-.3.4l-.6.7c-.3.3-.7.5-1.2.5h-.1c-1 0-1.8-.4-2.4-.8a14 14 0 0 1-4.6-3.8c-1-1.4-1.7-2.6-2.2-4a5 5 0 0 1-.3-2c0-.4.1-.7.4-1l1-1.1c.2-.2.3-.3.5-.3s.4.1.5.3l.5.6.3.3.9.9c.3.3.3.7 0 1l-.3.3-.8.8c-.3.3-.2.6-.2.8l1 1.7c.9 1.2 1.8 2 2.8 2.7l.4.2.3.2.3.1c.3 0 .4-.2.5-.2l1-1.1c.2-.2.3-.3.5-.3s.4.1.5.3l1.7 1.8c.3.3.3.7 0 1zM8.4 4a4 4 0 0 1 2.2 1.2c.6.7 1 1.5 1.1 2.4 0 .2.3.4.5.4.3 0 .4-.3.4-.5-.2-1.1-.7-2.1-1.4-3a4.8 4.8 0 0 0-2.7-1.4c-.2 0-.4.1-.5.4 0 .2.1.5.4.5zM14.9 6.9c-.3-1.7-1-3.3-2.2-4.5A7.6 7.6 0 0 0 8.5 0c-.2 0-.4.1-.5.4 0 .2.1.4.4.5 1.4.2 2.7 1 3.7 2 1 1.2 1.7 2.6 2 4.1 0 .2.2.4.4.4.3 0 .4-.3.4-.5z"/></g></svg>