<svg width="20" height="15" xmlns="http://www.w3.org/2000/svg"><path d="M19.3 9.5l-2.6-8A2.3 2.3 0 0 0 14 .2c-.3 0-.4.4-.3.6 0 .3.3.5.6.4.6-.2 1.3.2 1.5.8l1.8 5.7a4 4 0 0 0-6 3H8.3a4 4 0 0 0-4-3.5 4 4 0 0 0-2 .6l2-5.8c.1-.6.8-1 1.4-.8.3 0 .6 0 .7-.4 0-.2-.1-.5-.4-.6-1.2-.4-2.4.3-2.8 1.5l-2.5 8c-.2.5-.4 1-.4 1.5a4 4 0 0 0 4 3.9 4 4 0 0 0 4-3.4h3.4a4 4 0 0 0 4 3.3 4 4 0 0 0 3.7-5.4zM4.3 14a3 3 0 0 1-3-3 3 3 0 0 1 3-2.8A3 3 0 0 1 7.2 11a3 3 0 0 1-3 2.9zm11.3-.1a3 3 0 0 1-3-2.9 3 3 0 0 1 3-2.9 3 3 0 0 1 2.9 2.9 3 3 0 0 1-3 2.9z" fill-rule="nonzero" fill="#4A4A4A"/></svg>