<svg width="13" height="15" xmlns="http://www.w3.org/2000/svg"><g fill-rule="nonzero" fill="#F60CB9"><path d="M6 7.8c.9 0 1.6-.4 2-1 1.2-1.2 1-3.5 1-3.7C8.9 1.5 8.2.8 7.6.4 7 .2 6.6 0 6 0c-.4 0-1 0-1.6.4C3.8.8 3 1.5 3 3.1c0 .2-.2 2.5.9 3.7.5.6 1.2 1 2 1zM3.6 3.2C3.9 1 5.4.8 6 .8c.8 0 2.1.4 2.2 2.4 0 0 .2 2-.7 3.1-.4.4-.9.6-1.5.7-.7 0-1.2-.3-1.5-.7-1-1-.8-3-.8-3.1zM12.2 11.4c0-.7 0-2-1.3-2.5a8.5 8.5 0 0 1-2.5-1 .4.4 0 0 0-.5 0c-.2.2-.1.5 0 .6.1 0 1.3.8 2.7 1.2.7.2.8 1 .8 1.6v1.1c-.5.2-2.4 1.1-5.2 1.1A11 11 0 0 1 1 12.3v-.9c0-.7 0-1.5.7-1.7 1.5-.4 2.6-1.2 2.7-1.2.2-.1.2-.4 0-.6A.4.4 0 0 0 4 8a8.4 8.4 0 0 1-2.4 1C.2 9.4.2 10.7 0 11.3c0 .2 0 1 .2 1.4l.1.2c.1 0 2.2 1.4 5.8 1.4 3.5 0 5.6-1.3 5.7-1.4l.2-.2.1-1.3z"/></g></svg>