<svg width="16" height="16" xmlns="http://www.w3.org/2000/svg"><path d="M15.3 10.9c.3-.4.4-.9.4-1.4 0-.5-.2-.9-.4-1.1.2-.5.3-1.4-.4-2-.6-.5-1.5-.8-2.7-.7A13.2 13.2 0 0 0 10 6c0-.2 0-.7.5-2 .4-1.4.4-2.4-.1-3.2C9.8.1 8.9 0 8.7 0c-.3 0-.5.1-.7.3-.3.4-.3 1.2-.2 1.6a14.8 14.8 0 0 1-2.8 5l-.7 1c-.1-.2-.4-.3-.6-.3h-2C.9 7.6.3 8.3.3 9v5.5c0 .7.6 1.4 1.4 1.4h2c.3 0 .6-.1.8-.3l.8.1a33.2 33.2 0 0 0 7 .2c1-.3 1.8-.7 2.1-1.3.3-.5.3-1 .2-1.3a2.1 2.1 0 0 0 .7-2.4zm-13.6 4a.5.5 0 0 1-.5-.4V9c0-.2.2-.5.5-.5h2c.3 0 .5.3.5.5v5.5c0 .2-.2.5-.5.5h-2zm12.7-4.4c-.1.1-.2.4 0 .5v.6c.1.4 0 .8-.5 1.1-.2.2-.2.4-.2.6 0 0 .2.4 0 .8-.3.4-.8.7-1.5.9H9.7c-2.1.1-4.3-.2-4.3-.2H5V9v-.4c0-.2.2-.7.6-1.1a16.4 16.4 0 0 0 3-5.6l.1-1c.2 0 .7 0 1 .4.3.5.3 1.4-.1 2.5-.6 1.7-.6 2.6-.2 3 .3.2.5.2.8.1l.5-.1c1.1-.2 3-.4 3.6.2.5.5.1 1.2 0 1.2l.1.6s.4.3.4.8c0 .3-.1.6-.4.9z" fill-rule="nonzero" fill="#4A4A4A"/></svg>