<?xml version="1.0" encoding="UTF-8"?>
<svg xmlns="http://www.w3.org/2000/svg" xmlns:xlink="http://www.w3.org/1999/xlink" version="1.1" id="Capa_1" x="0px" y="0px" viewBox="0 0 394.971 394.971" style="enable-background:new 0 0 394.971 394.971;" xml:space="preserve" width="512px" height="512px" class=""><g><g>
	<g>
		<g>
			<path d="M56.424,146.286c-28.277,0-51.2,22.923-51.2,51.2s22.923,51.2,51.2,51.2s51.2-22.923,51.2-51.2     S84.701,146.286,56.424,146.286z M56.424,227.788L56.424,227.788c-16.735,0-30.302-13.567-30.302-30.302     s13.567-30.302,30.302-30.302c16.735,0,30.302,13.567,30.302,30.302S73.16,227.788,56.424,227.788z" data-original="#000000" class="active-path" data-old_color="#000000" fill="#606060"/>
			<path d="M379.298,187.037H143.151c-5.771,0-10.449,4.678-10.449,10.449s4.678,10.449,10.449,10.449h236.147     c5.771,0,10.449-4.678,10.449-10.449S385.069,187.037,379.298,187.037z" data-original="#000000" class="active-path" data-old_color="#000000" fill="#606060"/>
			<path d="M56.424,0c-28.277,0-51.2,22.923-51.2,51.2s22.923,51.2,51.2,51.2s51.2-22.923,51.2-51.2S84.701,0,56.424,0z      M56.424,81.502c-16.735,0-30.302-13.567-30.302-30.302s13.567-30.302,30.302-30.302S86.726,34.465,86.726,51.2     S73.16,81.502,56.424,81.502z" data-original="#000000" class="active-path" data-old_color="#000000" fill="#606060"/>
			<path d="M143.151,61.649h236.147c5.771,0,10.449-4.678,10.449-10.449s-4.678-10.449-10.449-10.449H143.151     c-5.771,0-10.449,4.678-10.449,10.449S137.38,61.649,143.151,61.649z" data-original="#000000" class="active-path" data-old_color="#000000" fill="#606060"/>
			<path d="M56.424,292.571c-28.277,0-51.2,22.923-51.2,51.2c0,28.277,22.923,51.2,51.2,51.2s51.2-22.923,51.2-51.2     C107.624,315.494,84.701,292.571,56.424,292.571z M86.726,343.771c0,16.735-13.567,30.302-30.302,30.302v0     c-16.735,0-30.302-13.567-30.302-30.302c0-16.735,13.567-30.302,30.302-30.302S86.726,327.036,86.726,343.771L86.726,343.771z" data-original="#000000" class="active-path" data-old_color="#000000" fill="#606060"/>
			<path d="M379.298,333.322H143.151c-5.771,0-10.449,4.678-10.449,10.449s4.678,10.449,10.449,10.449h236.147     c5.771,0,10.449-4.678,10.449-10.449S385.069,333.322,379.298,333.322z" data-original="#000000" class="active-path" data-old_color="#000000" fill="#606060"/>
		</g>
	</g>
</g></g> </svg>