<svg xmlns="http://www.w3.org/2000/svg" width="235" height="124"><g fill="none" fill-rule="evenodd"><path fill="#FFF" stroke="#FFF" d="M13.6 114.4l.2-.1v-.5c0-.1 0-.2-.2-.2H7l-.1.2v.5l.1.1h6.7zm21.3 8l.2-.2v-.6l-.2-.1h-9.3v-18.3c0-.2 0-.2-.2-.2H25c-.1 0-.2 0-.2.2v19l.2.1h10zm1.6 0h-.7v-.3l7-19 .2-.1h.7l.2.1 7.1 19-.1.2h-.6l-.2-.1-2.2-6h-9l-2.3 6-.1.1zm6.8-18.3l-4.2 11.3h8.5l-4.2-11.3zm29.4 18.2l.2-.1 7.2-19-.1-.2h-.6a.2.2 0 0 0-.2.1l-7 18.2-6.9-18.2-.2-.1h-.6l-.1.2 7.2 19 .3.1h.8zm10.7-.7c0-.4-.3-.7-.7-.7s-.8.3-.8.7c0 .5.3.8.8.8s.7-.3.7-.8zm2.6.7h-.6c-.2 0-.2 0-.2-.2l7.1-19 .2-.1h.7l.2.1 7.1 19-.1.2h-.6l-.2-.1-2.2-6h-9l-2.3 6-.1.1zm6.8-18.2l-4.1 11.3H97L93 104.1zm11 17.5c0-.4-.3-.7-.7-.7-.4 0-.7.3-.7.7 0 .5.3.8.7.8s.7-.3.7-.8zm5.1-8.7h9.2c.2 0 .2 0 .2-.2v-.5l-.2-.1H109v-8.3h9.8l.2-.1v-.5c0-.2 0-.2-.2-.2h-10.5c-.1 0-.2 0-.2.2v19l.2.1h11v-.7-.1h-10.3v-8.6zm38.3-9.7c0-.1 0-.2-.2-.2h-10.8c-.1 0-.2 0-.2.2v19l.2.1h.6l.1-.1v-9h9.3c.1 0 .2 0 .2-.2v-.5s0-.2-.2-.2H137v-8.5H147l.2-.1v-.5zm2 19.1h-.7l-.1-.2 7.1-19 .2-.1h.7l.2.1 7.1 19-.1.2h-.6l-.2-.1-2.2-6h-9l-2.3 6-.1.1zm6.8-18.2l-4.2 11.3h8.5l-4.2-11.3zm22.6 16.3v-.3l-.3-.4s-.1-.1-.2 0a8.4 8.4 0 0 1-5.6 2c-3.7 0-5.6-2.3-5.6-5.5v-7c0-3.3 1.8-5.6 5.5-5.6 2 0 3.8.6 5.3 1.8h.2l.3-.5v-.2a9 9 0 0 0-5.7-2c-4.1 0-6.5 2.6-6.5 6.4v7c0 3.9 2.3 6.5 6.5 6.5a9 9 0 0 0 6-2.2zm4.5-17.2l-.2-.2h-.6s-.2 0-.2.2v19l.2.1h.6l.2-.1v-19zm15.4 19.1l.2-.1v-.6l-.2-.1h-9.3v-18.3l-.1-.2h-.6c-.1 0-.2 0-.2.2v19l.2.1h10zm4-9.4h9.3c.1 0 .2 0 .2-.2v-.5l-.2-.1h-9.2v-8.3h9.8l.1-.1v-.5l-.1-.2h-10.6s-.2 0-.2.2v19l.2.1h11l.1-.1v-.6l-.1-.1h-10.2v-8.6zm26.9 1.5l.1-.1v-.5l-.1-.2h-6.7c-.1 0-.2 0-.2.2v.5l.2.1h6.7z"/><path fill="#FFF" d="M59.7 70.5L55 60a2 2 0 0 0-1.9-1.2h-33a2 2 0 0 0-1.8 1.2l-4.7 10.5a2 2 0 0 1-1.9 1.1H2.2a2 2 0 0 1-1.8-2.8L29 4.7A2 2 0 0 1 31 3.5h11.5a2 2 0 0 1 1.8 1.2l28.7 64.1a2 2 0 0 1-1.8 2.8h-9.6a2 2 0 0 1-1.8-1.1zM48 44l-9.6-22a2 2 0 0 0-3.7 0l-9.6 22a2 2 0 0 0 1.9 2.8h19.1a2 2 0 0 0 1.9-2.8z"/><path fill="#05CFA8" d="M121.3 1.2h8.6a2 2 0 0 1 1.9 2.8L105 70.6a2 2 0 0 1-1.8 1.2H93a2 2 0 0 1-1.8-1.2L72.5 26.3a2 2 0 0 1 1.8-2.7H83a2 2 0 0 1 1.8 1.2l6.1 14.6 5.5 15a2 2 0 0 0 3.8 0l13.2-37.1 6.1-14.8a2 2 0 0 1 1.9-1.3z"/><path fill="#FFF" d="M133.5 25.7v44a2 2 0 0 0 2 2h7.9a2 2 0 0 0 2-2V46.2c0-8.8 5.7-12.1 12-12.1 2 0 4.3.6 6.7 2a2 2 0 0 0 2.8-.8l3.5-6.8a2 2 0 0 0-.8-2.6 22.7 22.7 0 0 0-10.7-3.6c-4.9 0-9.8.9-13.5 6.8l-.6-3.9a2 2 0 0 0-2-1.6h-7.3a2 2 0 0 0-2 2zm54-.2v44.1a2 2 0 0 1-2 2h-7.8a2 2 0 0 1-2-2V25.5a2 2 0 0 1 2-2h7.9a2 2 0 0 1 2 2zM174.7 10c0-9.2 14-9.2 14 0s-14 9.3-14 0zm23.7-4.5v64a2 2 0 0 0 2 2h7.7a2 2 0 0 0 2-2v-64a2 2 0 0 0-2-2h-7.7a2 2 0 0 0-2 2zm21.8 60c0 9.2 14 9.2 14 0 0-9.3-14-9.3-14 0z"/></g></svg>