<svg id="Calque_1" xmlns="http://www.w3.org/2000/svg" viewBox="0 0 196 56"><style>.st0{fill:#057dbc}.st1{fill:#152e3a}</style><path id="path3_fill" class="st0" d="M65 39.1h1.3l1.7 4.3.5 1.6.6-1.6 1.6-4.3H72l-3.1 7.7h-1L65 39.1z"/><path id="path4_fill" class="st0" d="M73.1 44c0-1.6 1.1-2.9 2.7-2.9s2.7 1.2 2.7 2.9-1.1 2.9-2.7 2.9-2.7-1.2-2.7-2.9zm4.1 0c0-1.1-.5-1.9-1.4-1.9s-1.5.8-1.5 1.9c0 1.1.5 1.9 1.5 1.9.9 0 1.4-.8 1.4-1.9z"/><path id="path5_fill" class="st0" d="M79.9 45.5c.4.2.9.5 1.5.5s1.1-.2 1.1-.7c0-1-2.6-.7-2.6-2.5 0-.9.7-1.6 2-1.6.6 0 1.1.1 1.5.3v1.1c-.4-.2-.9-.3-1.5-.3-.5 0-.9.1-.9.6 0 1 2.6.6 2.6 2.6 0 1.2-1 1.7-2.2 1.7-.8 0-1.5-.3-1.9-.5l.4-1.2z"/><path id="path6_fill" class="st0" d="M91.2 46.2c-.4.4-.9.7-1.6.7-1.1 0-1.8-.7-1.8-1.7 0-.7.4-1.2.9-1.5.4-.2.9-.3 1.4-.3h1v-.2c0-.7-.5-1-1.1-1-.6 0-1.1.2-1.5.4l-.4-.8c.6-.4 1.4-.5 2.1-.5 1.4 0 2.1.6 2.1 2v2.1l.1 1.6h-1.1l-.1-.8zm-.9-2a2 2 0 0 0-.9.2c-.3.1-.4.4-.4.7 0 .5.4.9.9.9s1-.3 1.2-.5v-1.2h-.8z"/><path id="path7_fill" class="st0" d="M94 39.5c0-.4.3-.7.8-.7s.8.3.8.7-.3.7-.8.7c-.4.1-.8-.2-.8-.7zm.2 1.8h1.2v5.5h-1.2v-5.5z"/><path id="path8_fill" class="st0" d="M97 44.1a3 3 0 0 1 3-3l.8.1v-2.7h1.2v7.9c-.5.3-1.2.4-1.9.4-1.8.1-3.1-.9-3.1-2.7zm3.7 1.7v-3.5l-.7-.1c-1 0-1.8.7-1.8 1.9 0 1.1.7 1.8 1.8 1.8l.7-.1z"/><path id="path9_fill" class="st0" d="M104.8 44.4c0 1 .6 1.6 1.6 1.6.5 0 1-.1 1.4-.4l.4.8c-.5.4-1.2.5-1.9.5-1.9 0-2.7-1.4-2.7-2.9 0-1.6.9-2.9 2.4-2.9s2.4 1.1 2.4 2.9v.3l-3.6.1zm2.3-.9c0-.7-.4-1.4-1.1-1.4-.7 0-1.2.6-1.2 1.4h2.3z"/><path id="path10_fill" class="st0" d="M109.8 45.5c.4.2.9.5 1.5.5s1.1-.2 1.1-.7c0-1-2.6-.7-2.6-2.5 0-.9.7-1.6 2-1.6.6 0 1.1.1 1.5.3v1.1c-.4-.2-.9-.3-1.5-.3-.5 0-.9.1-.9.6 0 1 2.6.6 2.6 2.6 0 1.2-1 1.7-2.2 1.7-.8 0-1.5-.3-1.9-.5l.4-1.2z"/><path id="path11_fill" class="st0" d="M118.9 44.4c0 1 .6 1.6 1.6 1.6.5 0 1-.1 1.4-.4l.4.8c-.5.4-1.2.5-1.9.5-1.9 0-2.7-1.4-2.7-2.9 0-1.6.9-2.9 2.4-2.9s2.4 1.1 2.4 2.9v.3l-3.6.1zm2.3-.9c0-.7-.4-1.4-1.1-1.4-.7 0-1.1.6-1.2 1.4h2.3z"/><path id="path12_fill" class="st0" d="M123.9 41.3h1l.1.6a3 3 0 0 1 1.9-.8c.9 0 1.7.5 1.7 2v3.7h-1.2v-3.2c0-.7-.2-1.3-.9-1.3-.5 0-1 .3-1.5.7v3.9h-1.2v-5.6z"/><path id="path13_fill" class="st0" d="M133.6 45.9l-.2-1.1v-3.5h1.2v3.3l.1.7c.1.4.4.5.9.5s1-.3 1.3-.6v-4h1.2v4l.1 1.5h-1.1l-.2-.6c-.5.4-1 .7-1.7.7-.5.1-1.3-.1-1.6-.9z"/><path id="path14_fill" class="st0" d="M140 41.3h1l.1.6a3 3 0 0 1 1.9-.8c.9 0 1.7.5 1.7 2v3.7h-1.2v-3.2c0-.7-.2-1.3-.9-1.3-.5 0-1 .3-1.5.7v3.9H140v-5.6z"/><path id="path15_fill" class="st0" d="M149.2 44.1c0-1.7 1.2-2.9 2.8-2.9.6 0 1.1.2 1.5.4v1.1a2 2 0 0 0-1.3-.4c-1.1 0-1.7.8-1.7 1.9 0 1.2.6 1.9 1.6 1.9.5 0 .9-.2 1.3-.4l.4.8c-.4.3-1.1.5-1.8.5-1.8-.1-2.8-1.3-2.8-2.9z"/><path id="path16_fill" class="st0" d="M155.1 38.6h1.2v6.8c0 .4.1.5.4.5l.4-.1.2 1a3 3 0 0 1-1 .2c-.9 0-1.3-.5-1.3-1.2v-7.2z"/><path id="path17_fill" class="st0" d="M158.5 39.5c0-.4.3-.7.8-.7s.8.3.8.7-.3.7-.8.7c-.5.1-.8-.2-.8-.7zm.1 1.8h1.2v5.5h-1.2v-5.5z"/><path id="path18_fill" class="st0" d="M161.4 44.1c0-1.7 1.2-2.9 2.8-2.9.6 0 1.1.2 1.5.4v1.1a2 2 0 0 0-1.3-.4c-1.1 0-1.7.8-1.7 1.9 0 1.2.6 1.9 1.6 1.9.5 0 .9-.2 1.3-.4l.4.8c-.4.3-1.1.5-1.8.5-1.8-.1-2.8-1.3-2.8-2.9z"/><path id="path19_fill" class="st1" d="M101.7 31.5a14.7 14.7 0 0 1-7.1 1.8c-7.4 0-11.5-4.9-11.5-11.7 0-6.7 4.8-12.1 12.1-12.1 2.5 0 4.6.5 5.9 1.1v3.5c-1.7-.9-3.6-1.5-5.9-1.5-5.2 0-8.2 4-8.2 8.8 0 5.1 3.1 8.7 8 8.7 2.2 0 4-.6 5.6-1.6l1.1 3z"/><path id="path20_fill" class="st1" d="M103.5 8h3.7v20.4c0 1.2.4 1.6 1.2 1.6l1.1-.2.7 2.8c-.9.4-2 .5-2.8.5-2.6 0-3.8-1.3-3.8-3.7V8z"/><path id="path21_fill" class="st1" d="M120.5 31.2a7.1 7.1 0 0 1-4.8 2.1c-3.2 0-5.4-2.1-5.4-5.3 0-2.2 1.1-3.7 2.8-4.5 1.1-.6 2.6-.8 4.2-.9l3-.1v-.7c0-2.2-1.4-3.1-3.3-3.1-1.8 0-3.3.5-4.4 1.2l-1.3-2.4c2-1.1 4.1-1.6 6.3-1.6 4.1 0 6.4 1.9 6.4 5.9v6.4c0 2.4.1 3.8.3 4.7h-3.2l-.6-1.7zm-2.7-6.1c-1.2 0-2.1.2-2.7.5-.8.4-1.1 1.1-1.1 2.1 0 1.6 1.1 2.6 2.7 2.6 1.7 0 3-1 3.6-1.6V25l-2.5.1z"/><path id="path22_fill" class="st1" d="M126.3 16.3h3.1l.4 1.9c1.6-1.6 3-2.4 4.6-2.4.7 0 1.6.2 2.2.6l-1.3 3.2a3 3 0 0 0-1.8-.5c-1.1 0-2.1.5-3.6 1.9v11.9h-3.7l.1-16.6z"/><path id="path23_fill" class="st1" d="M146.3 31.2a7.1 7.1 0 0 1-4.8 2.1c-3.2 0-5.4-2.1-5.4-5.3 0-2.2 1.1-3.7 2.8-4.5 1.1-.6 2.6-.8 4.2-.9l3-.1v-.7c0-2.2-1.4-3.1-3.3-3.1-1.8 0-3.3.5-4.4 1.2l-1.3-2.4c2-1.1 4.1-1.6 6.3-1.6 4.1 0 6.4 1.9 6.4 5.9v6.4c0 2.4.1 3.8.3 4.7h-3.2l-.6-1.7zm-2.8-6.1c-1.2 0-2.1.2-2.7.5-.8.4-1.1 1.1-1.1 2.1 0 1.6 1.1 2.6 2.7 2.6 1.7 0 3-1 3.6-1.6V25l-2.5.1z"/><path id="path2_fill" d="M54.9 27.8a27.3 27.3 0 1 1-54.5 0 27.3 27.3 0 0 1 54.5 0z" fill="#0b2d3d"/><path id="path24_fill" class="st1" d="M55 27.5a27.5 27.5 0 1 1-55 0 27.5 27.5 0 0 1 55 0z"/><path id="path25_fill" class="st0" d="M12.9 24.1l19.2.2L37 42.1l7.9-35.7-32 17.7z"/><path id="path26_fill" class="st0" d="M185.3 0H170a10 10 0 0 0-10 10 10 10 0 0 0 10 10h15.3a10 10 0 0 0 10-10 10 10 0 0 0-10-10z"/><path id="path27_fill" d="M167.9 13V5.9h2.5c.9 0 1.5.2 2 .5.4.3.7.8.7 1.5 0 .3-.1.7-.3.9-.2.3-.4.5-.7.6.4.1.7.3.9.6.2.3.3.6.3 1 0 .7-.2 1.2-.7 1.6s-1.1.5-1.9.5h-2.8zm1.4-3.1v1.9h1.3l.8-.2c.2-.2.3-.4.3-.7 0-.7-.3-1-1-1h-1.4zm0-1h1.1c.7 0 1.1-.3 1.1-.9 0-.3-.1-.6-.3-.7a2 2 0 0 0-.9-.2h-1v1.8zm7.3 4.2c-.8 0-1.4-.2-1.9-.7-.5-.5-.7-1.1-.7-1.9v-.1c0-.5.1-1 .3-1.4.2-.4.5-.7.9-1 .4-.2.8-.3 1.3-.3.7 0 1.3.2 1.7.7.4.5.6 1.1.6 1.9v.6h-3.4c0 .3.2.6.4.8.2.2.5.3.9.3.5 0 1-.2 1.3-.6l.7.8c-.2.3-.5.5-.9.7l-1.2.2zm-.2-4.3a1 1 0 0 0-.7.3c-.2.2-.3.5-.3.8h2v-.2c0-.3-.1-.6-.3-.7-.1-.2-.4-.2-.7-.2zm1.7-1.9H177l-.8-.7-.8.7h-1.1v-.1l1.4-1.3h.8l1.6 1.4zm3.2-.5v1.3h.9v1h-.9v2.6l.1.4.4.1h.4V13l-.9.1c-1 0-1.5-.5-1.5-1.5V8.8h-.8v-1h.8V6.4h1.5zM186 13l-.1-.5c-.3.4-.8.6-1.3.6a2 2 0 0 1-1.3-.4c-.3-.3-.5-.7-.5-1.1 0-.6.2-1 .6-1.3a3 3 0 0 1 1.8-.5h.6v-.3l-.2-.6-.6-.2-.6.2-.2.5h-1.4c0-.3.1-.6.3-.8.2-.3.5-.5.8-.6l1.2-.2c.7 0 1.2.2 1.5.5.4.3.6.8.6 1.4V12l.2 1.1V13H186zm-1.2-1l.6-.1.4-.4v-.9h-.5c-.7 0-1.1.2-1.1.7v.1l.2.4c.1.2.2.2.4.2z" fill="#fff"/></svg>