<svg width="112" height="84" xmlns="http://www.w3.org/2000/svg"><g fill="none" fill-rule="evenodd"><path fill="#F60CB9" d="M50.542.492l61 45v38l-111-83z"/><path d="M56.777 17.95c.711.49 1.318.911 1.82 1.263.503.352.905.637 1.207.857.941.683 1.538 1.417 1.792 2.202.255.784.096 1.57-.474 2.354-.276.38-.641.656-1.095.827a2.323 2.323 0 0 1-1.346.11c.166.226.29.484.375.777.085.292.122.59.113.892-.01.303-.06.603-.15.9a2.75 2.75 0 0 1-.408.821c-.646.889-1.406 1.341-2.282 1.358-.876.016-1.831-.351-2.867-1.104-.319-.232-.739-.543-1.259-.934-.52-.391-1.15-.868-1.887-1.431l-.025-.157 6.33-8.711.156-.025zm-.583 7.17c.458.333.701.7.73 1.105.03.404-.077.774-.322 1.11-.257.354-.54.57-.848.65a1.31 1.31 0 0 1-.88-.067 4.023 4.023 0 0 1-.83-.504 13.65 13.65 0 0 0-.758-.55l1.834-2.524 1.074.78zm1.512-4.34c.106.09.235.19.386.3l.524.38c.405.296.624.603.655.922.032.32-.059.626-.272.92-.213.293-.478.48-.793.56-.316.081-.68-.03-1.095-.33l-.919-.668 1.514-2.084zm4.43 10.616l-.69.922-.009.013c.41.271.735.495.977.67l3.003 2.182c-.232.32-.424.556-.575.71-.586.589-1.268.602-2.044.037l-3.444-2.501c-.37-.27-.584-.59-.638-.959-.055-.37.053-.74.322-1.11l5.511-7.586.157-.025 5.579 4.054c-.13.288-.302.578-.515.872a3.206 3.206 0 0 1-.85.787l-3.533-2.567-.664.941-.658.906c.23.155.527.363.89.627l1.98 1.439c-.098.298-.26.602-.486.913-.225.31-.471.567-.737.77l-2.86-2.079-.715.984zm12.02 1.83l-.683.968-4.486 6.174a7.57 7.57 0 0 1-1.105-.684 7.01 7.01 0 0 1-.966-.82l5.182-7.133-.838-.589-1.333-.969c.13-.288.313-.593.548-.917.235-.323.47-.592.703-.804l6.407 4.655a3.459 3.459 0 0 1-.489.89c-.232.32-.486.488-.762.505-.276.017-.604-.112-.983-.388l-.376-.273-.806-.605-.013-.01zm.784 8.639a9.204 9.204 0 0 1-.508-.39l-1.92 1.473c-.245-.098-.553-.282-.924-.552-.414-.301-.716-.593-.906-.876l.01-.15 9.158-6.617c.375.193.786.452 1.235.778.509.37.893.695 1.15.975l-3.523 10.73a2.606 2.606 0 0 1-1.201-.497c-.45-.327-.708-.633-.776-.92-.068-.287-.008-.698.183-1.232l.375-1.033a8.885 8.885 0 0 1-.515-.354l-1.838-1.335zm1.146-1.66l1.022-.78c1.273-1.026 2.08-1.7 2.418-2.02l.078.056a118.696 118.696 0 0 0-1.226 3.184l-.363.962a8.19 8.19 0 0 1-.235-.18 8.191 8.191 0 0 0-.222-.171l-.944-.687-.528-.363z" fill="#FFF"/></g></svg>