<svg width="153" height="284" xmlns="http://www.w3.org/2000/svg"><defs><linearGradient x1="-3.7%" y1="183.3%" x2="81.9%" y2="-40.2%" id="a"><stop stop-color="#F60CB9" offset="0%"/><stop stop-color="#066EE7" offset="64.2%"/><stop stop-color="#00DEFF" offset="100%"/></linearGradient><linearGradient x1="-3.7%" y1="183.3%" x2="42.6%" y2="-149.4%" id="b"><stop stop-color="#F60CB9" offset="0%"/><stop stop-color="#F60CB9" offset="0%"/><stop stop-color="#066EE7" offset="64.2%"/><stop stop-color="#00DEFF" offset="100%"/></linearGradient></defs><g transform="translate(-10 -109)" fill="none" fill-rule="evenodd"><rect fill="url(#a)" transform="rotate(-41.1 264 201.7)" x="-13.4" y="177.2" width="555" height="49" rx="24.5"/><path d="M91 157.9h222a24.5 24.5 0 0 1 0 49H91a24.5 24.5 0 0 1 0-49z" fill="url(#b)" transform="rotate(-41.1 202 182.4)"/><path d="M-5.5 120h332a24.5 24.5 0 0 1 0 49h-332a24.5 24.5 0 0 1 0-49z" fill="url(#b)" transform="rotate(-41.1 160.5 144.5)"/></g></svg>