<svg width="53" height="53" xmlns="http://www.w3.org/2000/svg"><g fill="none" fill-rule="evenodd"><path d="M25 23.12L13.52 11.65a6.73 6.73 0 0 1-1.86-6.18A6.73 6.73 0 0 1 15.68.58l.11-.11c.82-.3 1.63-.47 2.45-.47A6.85 6.85 0 0 1 25 6.87v16.25zM6.82 11.42a6.55 6.55 0 0 0-6.17 3.96l-.06.17a6.67 6.67 0 0 0 .64 6.35 6.77 6.77 0 0 0 5.71 3.03h16.25L11.66 13.4a6.83 6.83 0 0 0-4.84-1.98zm.06 16.07a6.84 6.84 0 0 0-5.7 3.03 6.5 6.5 0 0 0-.7 6.17l.17.18a6.62 6.62 0 0 0 4.9 4.02 6.73 6.73 0 0 0 6.17-1.87L23.25 27.5H6.88zm6.58 13.34A6.73 6.73 0 0 0 11.6 47a6.55 6.55 0 0 0 3.84 4.84l.18.05c2.1.88 4.37.64 6.29-.64a6.77 6.77 0 0 0 3.03-5.7V29.3L13.46 40.83zm14.1 4.77c0 2.27 1.1 4.43 3.03 5.71a6.5 6.5 0 0 0 6.17.7l.17-.06a6.62 6.62 0 0 0 4.02-4.9 6.73 6.73 0 0 0-1.86-6.16l-11.53-11.6V45.6zm13.34-6.58a6.73 6.73 0 0 0 6.17 1.87 6.55 6.55 0 0 0 4.83-3.85l.06-.17c.87-2.1.64-4.37-.64-6.3a6.77 6.77 0 0 0-5.7-3.02H29.35L40.9 39.02zm0 0L29.36 27.5 40.9 39.02zm4.77-14.1c2.27 0 4.43-1.1 5.7-3.02a6.5 6.5 0 0 0 .7-6.17l-.17-.18a6.62 6.62 0 0 0-4.89-4.02 6.73 6.73 0 0 0-6.17 1.87L29.36 24.93h16.31zM40.95 5.48A6.55 6.55 0 0 0 37.11.64l-.23-.06A5.69 5.69 0 0 0 34.3 0a6.85 6.85 0 0 0-6.75 6.87v16.25L39.09 11.6a6.94 6.94 0 0 0 1.86-6.12z" fill="#006DEF" fill-rule="nonzero"/><circle fill="#FFF" cx="34.36" cy="6.99" r="2.33"/><circle fill="#FFF" cx="34.36" cy="45.43" r="2.33"/><circle fill="#FFF" cx="18.64" cy="6.99" r="2.33"/><circle fill="#FFF" cx="18.64" cy="45.43" r="2.33"/><circle fill="#FFF" transform="rotate(90 6.99 33.78)" cx="6.99" cy="33.78" r="2.33"/><circle fill="#FFF" transform="rotate(90 46.01 33.78)" cx="46.01" cy="33.78" r="2.33"/><circle fill="#FFF" transform="rotate(90 6.99 18.05)" cx="6.99" cy="18.05" r="2.33"/><circle fill="#FFF" transform="rotate(90 46.01 18.05)" cx="46.01" cy="18.05" r="2.33"/></g></svg>