<svg width="37" height="37" xmlns="http://www.w3.org/2000/svg"><g transform="translate(1 1)" fill="none" fill-rule="evenodd"><circle stroke="#006AEB" stroke-width="2" fill="#FFF" cx="17.5" cy="17.5" r="17.5"/><path d="M22.723 20.836h-.993l-.353-.34a8.138 8.138 0 0 0 1.975-5.32 8.176 8.176 0 1 0-8.176 8.176 8.14 8.14 0 0 0 5.32-1.975l.34.353v.993L27.126 29 29 27.126l-6.277-6.29zM15.5 21a5.493 5.493 0 0 1-5.5-5.5c0-3.043 2.457-5.5 5.5-5.5s5.5 2.457 5.5 5.5-2.457 5.5-5.5 5.5z" fill="#066EE7"/></g></svg>